<svg version="1.0" xmlns="http://www.w3.org/2000/svg" width="682.667" height="682.667" viewBox="0 0 512 512"><path d="M238 52c-91.5 8.8-165.6 75.8-182.9 165.5-12.9 66.4 8.3 134.9 56.4 183 31.5 31.5 70.3 51 115 58.1 16.7 2.6 45.2 2.4 62-.5 43.8-7.6 81.2-26.9 112-57.6 48.2-48.3 69.3-116.5 56.4-183-16.2-84.2-83.5-149.7-168-163.5-14.1-2.3-37.9-3.2-50.9-2zm31.9 19c57.9 4.4 109.3 34.8 141.4 83.5 26.8 40.8 36.3 91.3 26.3 139.6-11.2 53.6-45.9 99.8-94.6 125.7-51.7 27.6-114.1 29-166.8 3.7C98.8 386.4 57 301.9 74.4 217.9c15.1-72.3 73-129.6 145.4-143.9 10-2 22.7-3.4 33.2-3.9 1.9 0 9.5.4 16.9.9z"/><path d="M230.5 82.6c-32.6 5-62.7 18.6-87.3 39.4l-7.3 6.2 7 7.3c3.9 4 7.1 8.2 7.1 9.2 0 2.3-2.9 5.3-5.1 5.3-.8 0-4.6-3.2-8.4-7-3.8-3.9-7.3-7-7.7-7s-3.4 3.2-6.8 7.2c-21.1 25.1-35.2 57-39.5 89.6-.8 5.9-1.5 12.4-1.5 14.4v3.8h9.8c8.7 0 10.1.2 11.8 2.1s1.7 2.3.3 4.7c-1.4 2.6-1.8 2.7-11.7 3l-10.2.3v4.2c0 2.3.7 8.9 1.5 14.6 4.7 32.9 18.3 63.4 40 89.4l5.7 6.9 7.3-7.1c7.6-7.4 10-8.4 12.8-5.3s2 4.9-5.3 12.6l-7.1 7.4 6.8 5.7c26.7 22.3 58.5 36.1 93.3 40.4 4.6.6 9.9 1.1 11.7 1.1h3.3v-9.8c0-8.3.3-10.2 1.8-11.5 2.4-2.2 4.5-2.1 6.5.1 1.3 1.5 1.7 3.9 1.7 11.5v9.7h3.8c7.4-.1 25.5-3 36.6-5.9 24.7-6.6 46.3-17.9 67.4-35.2l7.4-6.1-7.1-7.3c-7.4-7.6-8.4-10-5.3-12.8s4.9-2 12.6 5.4l7.5 7 5.6-6.8c22.3-26.6 36.1-58.6 40.4-93.3.6-4.6 1.1-9.9 1.1-11.7V261h-9.8c-8.3 0-10.2-.3-11.5-1.8-2.2-2.4-2.1-4.5.1-6.5 1.5-1.3 3.9-1.7 11.5-1.7h9.7v-3.8c0-2-.7-8.5-1.5-14.4-4.4-33.2-18.9-65.6-40.8-91.1l-5-5.8-7.2 7.1c-4 3.8-8.2 7-9.2 7-2.2 0-5.3-2.9-5.3-5.1 0-.7 3.3-4.7 7.3-8.7l7.2-7.3-4.5-4.1c-27-24.5-64.3-40.3-102.2-43.4l-8.8-.7v10.1c0 9.7-.1 10.2-2.5 11.8-2.3 1.5-2.7 1.5-5 0-2.4-1.6-2.5-2.1-2.5-11.6V81l-5.7.1c-3.2.1-9.8.7-14.8 1.5zm28.3 42.1c1.1 1 7.5 13.2 14.2 27.2 12.9 26.8 13.6 29.4 8.5 30.7-1.9.5-5.4-.8-14-5.2l-11.5-5.9-11.5 5.9c-8.6 4.4-12.1 5.7-14 5.2-5.1-1.3-4.4-3.9 8.5-30.7 10.9-22.8 14.5-28.9 17-28.9.4 0 1.7.8 2.8 1.7zm36.1 81.4c20.1 6.6 37.3 12.5 38.3 13 1.7.9 1.8 4.2 1.8 53.8 0 41.1-.3 53.1-1.2 53.8-1.8 1.4-74.9 26.5-77.3 26.5-3 .1-75.7-25.2-77.7-27-1.7-1.4-1.8-5.2-1.8-53.1 0-28.4.4-52.2.8-52.9 1-1.5 74.5-26.2 78.1-26.2 1.3 0 18.9 5.4 39 12.1z"/><path d="M252.1 148.7c-1.9 3.8-4.4 9.2-5.7 12.1L244 166l6.1-3.1 6-3.2 6 3.1c3.2 1.7 5.9 2.9 5.9 2.6 0-.9-11.5-23.4-12-23.4-.3 0-2.1 3-3.9 6.7zm-23.8 64.6c-14.9 5.1-27.4 9.4-27.6 9.7-.3.3 12 4.8 27.4 10.2l28 9.6 27.9-9.6c15.3-5.4 27.6-10 27.2-10.3-.5-.5-50-17.2-54.7-18.5-.5-.1-13.2 3.9-28.2 8.9zm-41.3 24v7.2l30.7 10.5c16.8 5.8 31.2 10.6 32 10.8 1 .3 1.3-1.3 1.3-6.5v-6.9l-18.2-6.4c-10.1-3.4-24.5-8.4-32-11.1l-13.8-4.8v7.2zm105.8 4L261 252.4v6.9c0 5.4.3 6.8 1.4 6.5.8-.2 15.2-5 32-10.8l30.6-10.5v-7.3c0-3.9-.1-7.2-.2-7.1-.2 0-14.6 5.1-32 11.2zm-105.6 46.3.3 31.7 31.5 10.8c17.3 5.9 31.6 10.8 31.8 10.9.1 0 .1-14.3 0-31.7l-.3-31.7-31-10.8c-17-5.9-31.3-10.7-31.8-10.7-.4-.1-.6 14.1-.5 31.5zm105.3-20.7-31 10.7-.3 31.7c-.1 17.4-.1 31.7 0 31.7.2 0 14.5-4.9 31.8-10.9l31.5-10.8.3-31.7c.1-17.4-.1-31.6-.5-31.5-.5 0-14.7 4.9-31.8 10.8z"/></svg><svg xmlns="http://www.w3.org/2000/svg" width="400" height="400" viewBox="0 0 124 124" fill="none"><rect width="124" height="124" rx="24" fill="#F97316"/><path d="M19.375 36.782v63.843a4 4 0 0 0 4 4h63.843c3.564 0 5.348-4.309 2.829-6.828L26.203 33.953c-2.52-2.52-6.828-.735-6.828 2.829Z" fill="#fff"/><circle cx="63.211" cy="37.539" r="18.164" fill="#000"/><rect opacity=".4" x="81.133" y="80.72" width="17.569" height="17.388" rx="4" transform="rotate(-45 81.133 80.72)" fill="#FDBA74"/></svg>