
<svg xmlns="http://www.w3.org/2000/svg" width="200" height="25.018" viewBox="0 0 150 18.764" transform="scale(-1 1)" xmlns:v="https://vecta.io/nano"><path d="M.111 9.382v9.271h149.523l.067-.744c.045-.422.078-4.585.078-9.282V.111H.111v9.271zM103.757.877c1.688.122 2.143.278 3.053 1.066 1.366 1.188 3.475 1.765 5.085 1.41.389-.089.488-.078.544.045.178.455-.377 1.243-.955 1.366-.5.1-.544.278-.122.455.189.078.433.278.555.444.255.366.289 1.077.078 1.388-.167.211-.411.144-.411-.1 0-.089-.222-.455-.488-.822-.877-1.188-2.487-2.221-3.864-2.476l-.833-.2c-.056-.034-.333-.355-.633-.711l-.533-.633h-60.5l-.555.599c-.577.633-.7.7-1.987 1.077-1.688.477-2.465 1.066-3.52 2.62l-.633.933-.211-.555-.211-.555.244-.355c.144-.189.455-.433.7-.544l.444-.2-.566-.289c-.3-.156-.655-.411-.788-.577-.222-.289-.322-.866-.144-.966.045-.034.455.011.911.089.966.178 1.388.111 2.831-.389 1.188-.422 1.432-.566 1.932-1.132.2-.233.577-.544.833-.677.433-.233.599-.244 4.341-.3 6.662-.1 53.882-.111 55.403-.011zm-60.9.567l-.5.444-9.104-.045-9.326-.045c-3.542.056-4.253.034-4.486-.178s-.244-.211-.7 0c-.444.2-.788.211-5.529.211l-7.239-.055c-2.088-.056-2.187-.067-2.221-.278-.022-.178-.1-.211-.422-.189-1.01.1-1.299.533-1.444 2.199-.144 1.599-.144 10.204 0 11.747.111 1.31.233 1.588.8 1.932.577.344.944.389 1.11.144.144-.2.444-.211 5.362-.333 7.383-.178 8.827-.167 9.393.067.389.156.522.156.811.045.267-.111 2.876-.156 11.725-.2l11.38-.056.366.444c.189.255.355.477.355.511s-9.538.067-21.207.067H.777V.999h21.295l21.284.011-.499.433zm106.365 7.994v8.438h-42.679l.488-.511.5-.511 11.214.056 11.625.178c.344.111.533.1 1.055-.056.577-.167 1.155-.178 5.918-.1 7.361.122 8.716.178 8.716.389 0 .422 1.11.178 1.543-.333.3-.366.477-1.343.599-3.498.1-1.71-.045-10.17-.178-10.803-.167-.755-.788-1.288-1.577-1.377-.322-.022-.389 0-.389.189 0 .211-.078.222-1.444.233l-7.161.1c-5.74.078-5.951.067-6.462-.3-.156-.111-.233-.1-.422.078-.222.2-.411.222-2.21.222-1.077 0-2.099-.011-2.287-.022-.178-.011-4.452.011-9.493.034l-9.16.056-.444-.455-.433-.444h42.68v8.438zM3.353 2.332c.045.389.144.655.322.855.433.466 2.21 1.809 2.498 1.876.178.045.422-.034.755-.222.677-.4 1.033-.366 1.688.122l.544.422-.755.133c-.777.144-1.699.566-2.032.944-.322.344-.1.333.599-.022.577-.289.777-.333 1.599-.333.999 0 1.965.222 2.199.511.122.133.111.2-.034.344-.167.167-.244.167-1.044-.011-1.332-.289-2.054-.067-3.375 1.044-.844.711-1.699 1.21-1.832 1.077-.045-.045.011-.377.122-.733.278-.933.189-1.621-.267-2.032-.433-.389-.888-.4-1.232-.034-.211.222-.244.355-.2.833.067.622-.011.722-.422.622-.189-.056-.344-.211-.444-.477-.388-.91.378-2.253 1.278-2.253.411 0 .344-.211-.133-.422-.977-.433-1.188-1.943-.366-2.598.377-.311.477-.233.533.355zm143.671-.422c.344.289.533.7.533 1.177 0 .722-.267 1.188-.844 1.466-.267.133-.488.278-.488.333 0 .045.189.111.422.156 1.044.167 1.665 1.787.955 2.454-.389.366-.766.377-.666.022.233-.777.211-.922-.156-1.221-.588-.5-1.188-.333-1.566.433-.255.555-.233.833.189 1.776.255.588.255.599.045.599-.411 0-.933-.3-1.721-.966-1.488-1.254-2.221-1.532-3.308-1.21-.811.233-1.254.233-1.354-.011-.1-.278.278-.544 1.033-.766.8-.233 1.776-.156 2.676.233.822.344.888.344.588.022-.355-.377-1.132-.733-1.921-.899l-.689-.133.477-.355c.722-.522 1.066-.555 1.799-.144l.61.344.433-.289c.733-.5 1.799-1.366 2.099-1.721.178-.211.278-.477.278-.711 0-.689.2-.888.577-.588zM8.105 2.221c1.954.3 2.887.644 3.575 1.31l.411.389.599-.544c.333-.3.788-.61 1.033-.689.444-.156 4.786-.422 4.897-.311s-.278.588-.655.822c-.544.333-1.177.411-1.677.211-.222-.1-.433-.133-.466-.078-.034.045.078.344.233.644.156.311.255.61.211.677-.122.211-.866.133-1.444-.156-.3-.144-.689-.278-.844-.278-.622 0-1.243.766-1.976 2.454-.322.744-.599 1.199-.933 1.521-.5.488-3.764 2.575-4.03 2.575-.089 0-.156-.111-.156-.255 0-.311.444-.644 2.054-1.543 2.065-1.166 2.62-1.854 2.698-3.353.034-.811.011-.944-.222-1.288-.377-.555-.977-.744-1.51-.477-.289.144-.433.3-.5.566-.122.5-.5.455-.8-.111l-.222-.411.267-.344c.133-.189.222-.377.189-.422-.045-.034-.311.022-.61.133-.61.211-.944.167-1.643-.222-.488-.278-.766-.633-.644-.822.089-.144 1.243-.144 2.165 0zm135.899.045c0 .222-.422.722-.777.899-.4.211-.977.211-1.81.011l-.633-.144.289.377c.344.455.377.844.1 1.144-.3.322-.544.267-.755-.167-.255-.522-.644-.766-1.121-.677-.422.078-.911.566-1.021 1.033-.144.566.034 1.654.355 2.254.377.689.711.977 1.976 1.721 1.621.944 2.321 1.432 2.409 1.677.156.444-.045.488-.566.144-.278-.189-1.088-.666-1.81-1.077-.733-.411-1.51-.911-1.754-1.11-.411-.355-.877-1.177-1.254-2.265-.366-1.021-1.199-1.865-1.843-1.865-.156 0-.466.133-.7.289-.322.211-.533.267-.888.244-.411-.034-.466-.067-.5-.322-.022-.189.067-.411.267-.644.156-.2.267-.389.222-.422-.034-.034-.411 0-.822.078-.844.156-1.055.089-1.799-.533-.666-.577-.444-.633 2.032-.488 2.443.133 2.72.211 3.531.966.3.278.588.5.644.5.067 0 .389-.244.733-.555.689-.622 1.188-.8 2.842-1.044 1.444-.211 2.653-.222 2.653-.022zM5.94 2.998c.333.3.811.655 1.066.788l.466.233-.433.267c-.244.144-.533.267-.655.267-.233 0-.755-.311-1.61-.977-1.132-.889-1.176-1.133-.166-1.133.711 0 .733.011 1.332.555zm17.265-.455c0 .289-.322.355-1.299.233-1.088-.144-1.555-.089-2.065.233-.488.289-.744.278-.744-.045 0-.488.156-.522 2.187-.522 1.055 0 1.921.045 1.921.1zm82.317.511c.622.722.811.833 2.065 1.166 1.243.322 1.599.522 2.409 1.299 2.354 2.265 2.065 6.24-.61 8.239-.522.4-1.11.644-2.465 1.01-.355.1-.689.333-1.221.844l-.744.711H75.067c-27.391 0-29.922-.011-30.244-.178-.2-.1-.633-.444-.977-.777-.455-.422-.744-.599-1.055-.655-1.643-.278-2.931-1.166-3.786-2.62-.899-1.51-.933-3.653-.089-5.318.588-1.166 2.176-2.343 3.609-2.664.888-.2 1.354-.477 1.898-1.099l.488-.555 30.045-.011h30.033l.533.61zm25.137-.477c.189.189.167.633-.034.711-.089.034-.311-.067-.5-.222-.455-.377-.944-.455-1.954-.3-.677.1-.899.089-1.21-.034-.211-.089-.389-.189-.389-.222 0-.045.888-.067 1.976-.067 1.388 0 2.02.045 2.11.133zm15.455-.034c0 .233-2.254 2.121-2.542 2.121-.078 0-.344-.156-.588-.344l-.433-.355.455-.233c.255-.122.7-.466.999-.755l.544-.533h.788c.422 0 .777.045.777.1zm-118.312.111c.144.233-.644.355-1.41.222-.555-.1-.788-.1-.877-.011-.067.067-.133.511-.144.988-.011.766-.067.966-.433 1.688a19.551 19.551 0 0 1-.711 1.266l-.289.433-.61-.078c-.344-.045-.655-.1-.711-.133-.156-.1.144-.455.622-.733.722-.433.788-.533.566-.999-.211-.433-.2-.477.344-1.232.222-.3.389-.666.389-.844 0-.333.144-.5.5-.588.4-.1 2.709-.078 2.765.022zm5.263.233a16.95 16.95 0 0 1 1.177.444c.389.156.644.2 1.021.144l.5-.067.178.488c.111.267.455 1.01.766 1.654.755 1.555.888 2.009 1.088 3.753.2 1.654.322 2.099.855 2.976.899 1.488 2.032 2.354 3.597 2.765.644.167.977.366 2.032 1.254l.577.5 29.845-.067 30.255-.167c.233-.067.677-.333.999-.599a22.648 22.648 0 0 1 .766-.622c.1-.089.522-.222.922-.3 1.377-.289 2.542-1.132 3.453-2.509.633-.955.755-1.366.988-3.231.222-1.732.366-2.21 1.332-4.33l.722-1.588.61.034c.455.034.744-.022 1.199-.233 1.521-.689 2.953-.744 5.074-.2.766.2 1.754.389 2.199.422l.8.067v.655c0 .588.067.8.61 1.843.655 1.266.733 1.632.411 2.032-.267.322-.533.222-.633-.222-.067-.322-.933-1.71-1.354-2.176-.355-.389-1.188-1.021-1.688-1.277a4.86 4.86 0 0 0-2.398-.555c-2.642 0-4.674 1.444-5.485 3.93-.122.366-.355 1.421-.511 2.332s-.377 1.865-.488 2.121c-.244.544-.933 1.343-1.243 1.444s-.255.244.156.455c.633.322.855.599.855 1.077v.433l-.411-.089c-.888-.211-2.143-.1-3.153.255-1.332.477-1.599.633-1.954 1.166-.477.722-.677.744-6.251.888-6.673.167-55.692-.045-56.347-.244-.278-.078-.633-.333-.944-.655-.577-.622-.933-.811-2.21-1.243-1.088-.377-2.032-.422-2.765-.133-.522.2-.677.122-.689-.322 0-.267.711-1.033 1.11-1.199s.422-.311.067-.4c-.422-.1-1.033-.822-1.343-1.566-.144-.377-.377-1.277-.5-1.998a35.88 35.88 0 0 0-.4-1.976c-.455-1.699-1.577-3.075-3.12-3.808-.866-.411-.866-.411-2.321-.411h-1.444l-.877.433c-1.188.588-2.276 1.677-2.92 2.92-.522 1.01-.622 1.11-.855.922-.333-.278-.2-.999.444-2.332.511-1.055.61-1.366.588-1.776l-.022-.5.933-.078c.522-.034 1.343-.2 1.832-.355a20.086 20.086 0 0 1 1.444-.389c.755-.156 2.11-.056 2.92.211zm7.35-.222c.466.289-1.299.444-2.487.211-.577-.122-.644-.111-.8.078-.233.3-.133 1.01.222 1.577.156.255.289.533.289.622 0 .2-.289.433-.444.344-.211-.133-.566-.944-.777-1.787-.111-.466-.233-.866-.267-.899-.022-.034-.4 0-.822.078-.633.111-.811.111-1.033-.011-.255-.156-.244-.156.289-.222.922-.111 5.651-.1 5.829.011zm75.333-.011c.122.211-.4.355-1.177.322-.899-.034-.855-.089-1.21 1.077-.233.744-.677 1.499-.888 1.499-.056 0-.156-.1-.222-.233-.1-.189-.067-.322.222-.766.255-.389.355-.7.366-1.066.034-.677-.156-.811-.866-.622-.644.167-1.91.178-2.398 0-.377-.133-.377-.133-.1-.211.433-.122 6.196-.111 6.273 0zm9.604.322c0 .3.133.644.455 1.177.4.677.433.777.333 1.088-.222.622-.167.755.433.999.4.167.577.311.622.5.045.144.045.289.022.311-.034.034-.355.089-.722.122l-.666.078-.677-1.366c-.622-1.232-.689-1.421-.689-2.054 0-.389-.034-.777-.067-.877-.078-.211-.466-.222-1.055-.056-.333.1-.544.1-.944-.011-.788-.222-.377-.311 1.432-.322l1.521-.011v.422zm1.288.078c.167.122.655.189 1.688.244l1.444.067.078.4c.045.222.167.555.289.744.389.633.233.977-.811 1.688a5.711 5.711 0 0 0-.911.811l-.389.466-.133-.322c-.089-.233-.089-.477-.011-.899.144-.722.411-1.121.788-1.21.366-.089.566-.244.566-.444s-.422-.189-.777.011a1.473 1.473 0 0 1-.533.167c-.322 0-1.321-.5-1.71-.866-.322-.289-.5-.877-.377-1.199.067-.167.089-.167.322 0 .133.1.355.255.477.344zm-102.458.022c.078.555-1.444 1.699-2.243 1.699-.189-.011-.466-.078-.622-.167-.389-.222-.689-.211-.644.022.022.111.289.322.588.477.511.255.566.322.7.833.144.566.122 1.332-.056 1.51-.067.067-.222-.056-.389-.289-.144-.211-.622-.655-1.044-.977s-.833-.733-.922-.899c-.133-.289-.122-.344.111-.655.144-.189.278-.522.322-.733.089-.599.377-.689 1.832-.61 1.188.056 1.232.056 1.555-.222.4-.344.766-.333.811.011zm-5.029.81c.034.056.022.111-.045.111-.056 0-.144-.056-.178-.111-.034-.067-.022-.111.045-.111a.23.23 0 0 1 .178.111zm111.917 0a.26.26 0 0 1-.178.111c-.067 0-.078-.056-.045-.111a.227.227 0 0 1 .178-.111c.067 0 .078.045.045.111zm8.549.344c-.111.167-.722.455-.722.333 0-.156.566-.577.677-.5a.126.126 0 0 1 .045.167zM18.231 4.219c.533.156.755.377.755.766 0 .466.411.988 1.221 1.566 1.099.777 1.044 1.099-.389 2.176-.455.344-.833.655-.833.7 0 .034.189.189.411.344.644.444 1.699 1.532 1.699 1.765 0 .222-.278.488-1.144 1.088a4.09 4.09 0 0 0-.899.955c-.255.4-.511.655-.811.788-.544.244-1.288.211-1.343-.067-.022-.144.067-.2.389-.255.733-.111.966-.222 1.099-.5.855-1.743.944-2.02.833-2.354-.067-.178-.278-.511-.455-.722-.666-.755-.677-1.132-.034-1.843.2-.233.455-.599.555-.811.189-.389.189-.389-.244-1.243l-.566-1.133c-.156-.322-.877-.777-1.232-.777-.278 0-.411-.167-.322-.389.067-.2.711-.222 1.31-.056zm14.123.056c.811.211 2.02.999 2.609 1.699.788.91 1.121 1.721 1.199 2.865.078 1.254-.111 2.476-.5 3.186-.4.755-1.765 2.009-2.443 2.243-.333.122-1.021.211-1.921.244-1.699.078-2.332-.078-3.286-.788-1.254-.922-2.287-2.953-2.298-4.508-.011-.755.034-.911.455-1.776.788-1.61 1.832-2.554 3.364-3.075.866-.3 1.898-.333 2.82-.089zm87.502 0c1.432.366 2.476 1.099 3.286 2.287.511.755 1.21 2.165 1.21 2.443 0 .377-.477 1.743-.955 2.72-.577 1.188-1.343 1.998-2.343 2.465-.599.278-.744.3-2.199.3-1.51 0-1.577-.011-2.298-.355-.911-.433-1.887-1.388-2.42-2.365l-.389-.722v-3.12l.389-.766c.455-.911 1.588-2.121 2.332-2.498a4.783 4.783 0 0 1 3.386-.389zm13.157 0c.189.222.067.344-.444.433-.577.089-1.144.599-1.388 1.254-.111.3-.289.655-.389.811s-.222.366-.255.477c-.1.278.189.911.633 1.41.655.722.633.888-.167 1.954-.244.311-.433.689-.433.833s.178.544.389.877.389.689.389.788c0 .333.377.666.999.866.733.244.811.5.178.544-.677.056-1.243-.255-1.699-.944-.233-.355-.689-.811-1.155-1.144-1.199-.877-1.155-1.144.433-2.298.377-.278.689-.566.689-.644 0-.167-.588-.711-1.254-1.155-.555-.377-.822-.766-.711-1.055.034-.089.444-.444.899-.788.933-.7 1.31-1.21 1.266-1.688-.034-.278.011-.333.522-.5.689-.233 1.321-.255 1.499-.034zm-118.28.622c.2.178.178.433-.078.822-.267.4-.289.911-.067 1.444.211.488.477.5.899.056.377-.4.666-.422 1.021-.089.322.3.322.666 0 1.033l-.244.3-.3-.233c-.355-.278-.422-.289-.933-.045l-.4.2-.488-.533a13.613 13.613 0 0 1-.922-1.199c-.433-.644-.444-.689-.289-.977.089-.178.344-.477.566-.666.333-.3.466-.355.744-.3.189.034.4.122.488.189zm121.865.322c.233.244.411.544.411.7 0 .333-.488 1.077-1.21 1.843-.422.455-.599.577-.755.511-.777-.322-.777-.322-1.099-.067-.3.233-.311.233-.511.045-.344-.355-.366-.833-.045-1.177.156-.167.333-.3.389-.3.067 0 .311.178.555.389.711.644 1.033.466 1.033-.599 0-.444-.067-.777-.2-1.01l-.211-.355.322-.278c.422-.355.766-.278 1.321.3zM10.603 5.052c.599.355.766.833.289.833a3.46 3.46 0 0 1-1.11-.322c-.133-.089-.133-.156-.011-.444.167-.422.222-.422.833-.067zm129.504.045c.133.178.233.344.233.377 0 .067-1.033.389-1.388.433-.156.022-.233-.045-.255-.211-.034-.2.078-.322.488-.588.289-.178.566-.333.61-.333s.189.144.311.322zm-122.054.389a1.79 1.79 0 0 1 .2.677c.022.278.144.522.389.766.444.455.433.677-.034 1.11-.2.2-.422.466-.5.599-.211.389-1.055.833-1.455.744-.178-.045-.333-.1-.333-.133s.178-.255.389-.511c.677-.788.622-1.832-.122-2.143-.488-.211-.7-.2-1.188.056-.366.189-.433.189-.488.045-.1-.267.178-1.021.444-1.166.322-.178.966-.278 1.821-.3.622-.011.711.022.877.255zm5.141-.111c.111.122.078.189-.122.333-.133.1-.311.178-.389.178-.144 0-.366-.333-.366-.544 0-.178.733-.144.877.034zm104.378.045c0 .455-.666.655-.877.267-.156-.289.045-.466.511-.466.278 0 .366.045.366.2zm6.717.078c.455.189.722.566.722 1.021 0 .2-.022.366-.056.366-.022 0-.244-.1-.488-.233-.822-.422-1.787.078-1.787.944 0 .344.5 1.288.777 1.455.2.122-.089.278-.522.278-.377 0-.922-.2-.922-.344 0-.045-.244-.377-.555-.744-.3-.366-.555-.7-.555-.744 0-.034.178-.3.389-.577.233-.311.389-.633.389-.833s.111-.433.289-.61c.278-.267.322-.278 1.132-.211.455.045.999.144 1.188.233zM4.108 6.662c.4.4.244 1.166-.444 2.165-.355.511-.344.666.022.944.034.034.222.255.411.488.633.8.344 2.009-.477 1.932-.411-.045-.511-.366-.233-.8.1-.144.167-.411.144-.588-.034-.278-.089-.322-.555-.4-.599-.111-.666-.233-.666-1.077.011-.744.156-.955.811-1.166.311-.1.588-.255.622-.344.022-.078-.078-.311-.233-.522-.344-.444-.355-.577-.089-.733.278-.167.444-.144.689.1zm142.428.267a.5.5 0 0 1-.222.533l-.255.2.3.267c.167.144.5.3.733.344.422.067.444.089.511.577.034.278.067.722.067.988v.477l-.61.067c-.866.111-.955.278-.566.977l.311.555-.267.211c-.3.233-.366.233-.655.089-.322-.178-.577-.755-.5-1.144.067-.333.644-1.199 1.055-1.566.233-.211.233-.222.022-.444-.5-.555-.899-1.332-.899-1.787 0-.555.167-.744.61-.7.278.034.344.089.366.355zM14.123 8.472c.233.3.422.588.422.644s-.366.1-.822.1c-.899 0-1.41-.233-1.732-.8-.144-.278-.144-.322.022-.488.178-.178.2-.178.477 0 .167.111.322.178.344.144.022-.022-.056-.278-.178-.566-.5-1.121.144-.7 1.466.966zm123.153-1.166c-.278.633-.311.8-.144.8.078 0 .233-.078.344-.178.156-.156.222-.156.366-.045.233.189.211.377-.1.744-.333.389-.922.588-1.765.588-.666 0-.844-.111-.566-.344.1-.078.555-.588 1.01-1.121.855-1.01 1.166-1.166.855-.444zm-113.361.61c.588.366.988 1.01 1.41 2.276.189.588.5 1.377.7 1.743.477.933 1.743 2.154 2.698 2.631.744.366.755.366 2.365.366 1.599 0 1.621 0 2.354-.366 1.188-.588 2.054-1.477 2.909-3.031l.2-.377.211.5c.289.733.255 1.033-.222 1.921-.244.444-.5 1.01-.577 1.277l-.133.477-.577-.067c-.522-.067-.655-.034-1.399.344-.8.411-.866.422-2.154.466-1.366.045-1.91-.034-3.719-.533a13.94 13.94 0 0 0-1.466-.3c-.7-.067-.7-.078-.522-.7.122-.389.1-.444-.389-1.155-.444-.677-.855-1.61-1.455-3.331a3.81 3.81 0 0 0-.522-.911c-.278-.311-.411-.377-.777-.377-.477 0-1.088.267-1.088.477 0 .067.1.289.211.477.211.344.566.488 1.243.488.377 0 .766.344.766.677 0 .144-.122.278-.389.389-.599.244-.933.2-1.399-.233-.244-.211-.522-.389-.633-.389-.255 0-1.099-.544-1.455-.922-.144-.167-.233-.366-.2-.455.089-.233 1.077-.844 1.354-.844.133 0 .5-.178.833-.389.733-.455 1.21-.5 1.821-.133zm103.879.133c.333.211.7.389.833.389.377 0 1.566.911 1.444 1.11-.144.233-1.388.999-1.61.999-.133 0-.433.2-.677.444-.366.366-.511.444-.888.444-.322 0-.522-.078-.711-.267-.466-.466-.122-.955.655-.955.533 0 1.121-.322 1.232-.677.067-.2.011-.311-.211-.511-.455-.389-1.088-.377-1.521.045-.322.289-.4.455-1.11 2.287-.255.655-.689 1.555-.955 1.998-.4.644-.477.855-.422 1.132.156.8.178.766-.666.844-.422.045-1.254.222-1.832.389-.955.289-1.21.322-2.72.322-1.599 0-1.688-.011-2.332-.322-1.188-.566-1.432-.622-1.776-.444-.178.089-.322.144-.344.122s-.211-.466-.433-1.01c-.211-.533-.511-1.155-.666-1.377-.344-.511-.344-.566.011-1.266l.289-.566.455.766c.999 1.699 2.776 2.976 4.297 3.109 1.455.122 3.398-.455 4.275-1.266.933-.855 1.521-1.843 2.165-3.653.833-2.376 1.787-2.987 3.22-2.088zM7.605 8.338c.433.378.499.655.167.655-.255 0-.999-.622-.999-.844 0-.267.422-.167.833.189zm135.4-.078c0 .322-.466.733-.844.733-.422 0-.4-.178.067-.599.522-.466.777-.511.777-.133zm-127.294.955c.111.988-.289 1.254-.422.278-.078-.544.089-1.155.255-.988.056.056.133.377.167.711zm119.078-.067c0 .355-.222 1.066-.322 1.066-.222 0-.3-1.11-.111-1.466.122-.233.133-.233.278-.034.089.111.156.311.156.433zM5.374 9.915c.189.133.689.533 1.11.888.433.366.988.755 1.254.877.444.2.566.2 1.566.078 1.188-.156 1.466-.111 1.466.211 0 .455-.4.633-1.51.666-1.077.045-1.71-.089-2.631-.555-.244-.122-.455-.189-.477-.167-.1.089 1.033.855 1.521 1.033.7.244 2.365.244 2.92 0 .555-.233.689-.111.511.422-.078.255-.244.466-.444.566-.455.233-.633.211-.8-.133-.078-.167-.222-.322-.322-.344-.089-.011-.477.178-.855.422l-.677.455-.833-.455-.833-.455-.455.355c-.244.2-.833.61-1.31.922-.922.61-1.11.866-1.21 1.732-.034.3-.1.555-.144.555-.167 0-.677-.477-.833-.777-.377-.733-.078-1.532.733-1.987l.466-.267-.433-.222c-.833-.411-1.266-1.01-1.266-1.721 0-.466.444-1.077.777-1.077.189 0 .267.056.233.167a5.47 5.47 0 0 0-.089.61c-.078.599.233.888.933.888.411 0 .544-.056.766-.311.355-.411.377-1.432.045-2.088-.133-.244-.2-.488-.156-.555.089-.156.566-.034.977.267zm140.03.167c-.389.766-.455 1.221-.233 1.765.333.822 1.132 1.077 1.688.522.233-.233.267-.355.222-.689-.034-.222-.089-.5-.133-.61-.067-.156-.022-.189.267-.189.522 0 .711.377.655 1.277-.056.877-.3 1.254-.988 1.51-.577.222-.666.4-.244.5.577.133 1.033.766 1.033 1.432 0 .711-.855 1.688-1.121 1.266-.056-.089-.1-.366-.1-.633 0-.4-.067-.544-.455-.966a4.94 4.94 0 0 0-.866-.744c-.222-.122-.655-.433-.966-.666l-.566-.422-.788.389c-.433.211-.855.389-.933.389s-.366-.156-.644-.333c-.633-.422-1.077-.444-1.221-.056-.122.322-.222.344-.7.089-.444-.222-.622-.455-.633-.8 0-.255.011-.255.588-.167.311.056 1.055.1 1.632.1 1.199-.011 1.954-.255 2.509-.844l.311-.333-.766.355c-.644.3-.944.366-1.787.411s-1.088.011-1.532-.178c-.278-.133-.511-.311-.511-.4 0-.244.333-.533.544-.455.366.144 1.665.255 2.076.178.588-.111.988-.344 1.765-1.01.877-.766 1.599-1.221 1.91-1.221h.255l-.267.533zm-134.523.2c.644.599.966 1.121 1.444 2.332.2.477.433 1.021.533 1.188.389.655 1.232.922 1.887.588.377-.189 1.254-.322 1.499-.222.167.056.156.111-.089.422-.422.555-.377.666.278.577.677-.089 1.299.156 1.876.722l.377.377-.655.089c-.366.056-1.299.067-2.099.045-1.588-.045-1.932-.144-3.042-.899-.322-.222-.655-.4-.722-.4-.078 0-.389.178-.689.389-.7.5-1.632.788-3.231.999-1.488.2-2.321.211-2.42.045-.1-.156.2-.466.811-.877a1.63 1.63 0 0 1 1.099-.333c.61 0 .622 0 .744-.588.078-.344.433-.744.666-.744.078 0 .233.222.344.5.278.755.777.922 1.477.5 1.166-.711.811-2.898-.722-4.397-.389-.377-.7-.722-.7-.755s.178-.067.389-.067c.322 0 .511.1.944.511zm2.82.544c-.544.577-1.044 1.055-1.121 1.055-.2 0-.178-.4.034-.733.222-.333.144-.444-.178-.267-.278.144-.555-.011-.555-.333 0-.422.877-.755 2.032-.766l.755-.011-.966 1.055zm4.363-.366c.944.911 1.01 1.033.689 1.377-.477.511-.766.311-.766-.522 0-.522-.267-1.099-.5-1.099-.211 0-.211 0 .011.666.311.955-.078 1.588-1.155 1.876-.488.133-.61.3-.267.366.289.067.911-.122 1.455-.433.511-.3.666-.244.677.211 0 .488-.855.855-1.199.511-.1-.1-.233-.1-.555 0-.244.078-.555.133-.711.133-.411 0-.855-.533-.933-1.144-.045-.289-.045-.522 0-.522s.377.156.744.344l.677.333.366-.278c.511-.389.677-.922.455-1.455-.1-.222-.278-.544-.4-.733l-.233-.322h.455c.422 0 .533.067 1.188.689zm115.282-.632c0 .034-.144.355-.333.722-.444.866-.422 1.11.067 1.555.477.411.766.4 1.488-.056.244-.156.5-.255.555-.222.355.222-.111 1.277-.689 1.599-.255.144-.377.144-.811.034-.355-.089-.577-.1-.722-.022-.677.366-1.499-.278-1.121-.866.067-.122.211-.089.689.178.666.366 1.199.5 1.421.355.211-.122.056-.333-.244-.333-.133 0-.455-.1-.7-.211-.411-.189-.477-.267-.588-.755-.111-.466-.111-.622.056-1.021.1-.255.156-.488.122-.522-.222-.222-.733.777-.744 1.421 0 .511-.211.555-.544.133-.311-.4-.3-.477.156-.933a21.518 21.518 0 0 0 .711-.755c.267-.289.411-.355.777-.355.255 0 .455.022.455.056zm4.075.2c.488.255.666.599.433.833-.133.144-.2.144-.311.045a.46.46 0 0 0-.278-.133c-.122 0-.111.078.022.344.2.377.189.822-.022.822-.111 0-.689-.622-1.699-1.854l-.278-.344.888.056c.522.034 1.033.133 1.243.233zm2.92-.2c0 .022-.355.433-.777.911-1.332 1.466-1.677 2.587-1.132 3.653.289.566.455.711.955.788.477.078.744-.122 1.077-.777.122-.222.267-.411.322-.411.211 0 .566.511.622.911l.078.422h.689c.61 0 .744.045 1.188.377.466.355.644.588.644.855 0 .156-.711.122-2.542-.122-1.898-.255-2.009-.289-3.031-.899l-.733-.444-.377.189c-.2.1-.644.377-.977.599l-.61.411-2.332.078-2.332.067.588-.555c.655-.61 1.21-.822 1.898-.711.255.045.455.034.455-.022s-.122-.289-.278-.511-.278-.444-.278-.488c0-.133 1.321.056 1.665.233a1.23 1.23 0 0 0 1.343-.089c.289-.189.544-.588 1.099-1.688.766-1.532 1.266-2.254 1.821-2.609.3-.189.955-.311.955-.167zm-5.629.777c.488-.067.622-.034.877.167.389.3 1.421 1.865 1.421 2.154 0 .3-.944 1.177-1.254 1.177-.144 0-.355-.067-.466-.156-.211-.156-.211-.167-.011-.588.255-.522.355-1.543.189-1.954-.133-.333-.455-.4-.689-.122-.211.267-.722.488-1.088.488-.588 0-.689-.644-.178-1.144.144-.144.233-.167.4-.067.133.067.455.089.8.045zm-118.158.133c.067.067.1.311.078.544-.034.411-.056.433-.455.466-.322.034-.544-.045-.933-.311-.466-.3-.544-.322-.689-.167-.244.244-.289 1.366-.078 1.876.255.599.222.822-.1.911-.522.133-1.388-.622-1.388-1.21 0-.344.689-1.488 1.155-1.932.366-.344.4-.355 1.332-.322.522.011 1.01.078 1.077.144zm5.43 1.599c0 .689-.5 1.499-1.021 1.632-.255.067-.377.167-.4.333-.045.3.211.322.788.078.222-.089.555-.167.733-.167.811 0 2.121.922 2.121 1.488 0 .422-.233.455-.899.111-.488-.244-.722-.3-1.21-.267-1.932.122-1.998.089-2.287-.888-.344-1.21-.4-1.077.833-2.043.622-.488 1.121-.933 1.121-.999s.056-.045.111.045.111.389.111.677zm106.666-.211c.3.267.788.633 1.066.833.61.422.744.777.477 1.321-.1.211-.178.5-.178.655s-.122.355-.3.5c-.289.222-.389.233-1.388.167-1.01-.078-1.11-.056-1.71.211-.788.355-.933.366-.933.011 0-.377.566-.988 1.243-1.321.689-.344 1.01-.355 1.754-.067.522.2.566.211.633.034.045-.122-.011-.244-.189-.355-.689-.466-1.077-.966-1.221-1.543-.133-.566-.1-.911.089-.911.045 0 .344.211.655.466zm-104.289.011c.156.2.455.711.677 1.121.344.666.389.844.389 1.61 0 .511.056.911.133.988.089.089.4.111 1.021.067.722-.056.944-.034 1.121.111.2.156.1.178-1.388.144l-1.599-.022-.1-.4c-.045-.211-.289-.655-.533-.977l-.455-.599.189-.411c.333-.733.222-.922-.777-1.354-.644-.278-.311-.61.633-.633.344-.011.455.056.689.355zm102.28-.244c.267.067.522.178.555.222.034.056-.211.222-.533.366-.855.377-.911.477-.633 1.11l.222.522-.444.666c-.244.366-.477.844-.522 1.055l-.067.377h-1.688c-1.588-.011-1.654-.022-1.354-.178.233-.133.555-.167 1.277-.133l.955.034v-.777c.011-1.021.078-1.232.733-2.398.61-1.077.622-1.088 1.499-.866zm-103.38 1.142c.178.133.2.211.111.466-.133.377-.389.455-.844.267-.366-.156-.4-.289-.144-.644.189-.278.566-.322.877-.089zm104.189.133c.278.355.2.566-.244.666-.289.056-.389.022-.599-.222-.322-.377-.322-.444 0-.599.389-.189.599-.156.844.156zm-89.745.344c.067.233-.011.466-.267.933-.433.777-.444.977-.078 1.321.278.255.311.267.922.122 1.243-.278 1.477-.278 2.132.034l.61.289-3.609-.011h-3.609l.544-.278.544-.289.61.233c.755.289.866.222.933-.633.133-1.399 1.044-2.631 1.266-1.721zm75.067-.056c.389.422.577.911.655 1.699.089.877.189.944.933.677.511-.189.533-.189 1.121.089l.599.267-3.553.011h-3.553l.666-.289.666-.278 1.044.2 1.033.2.222-.255c.255-.322.2-.733-.2-1.421-.3-.511-.333-.811-.133-1.01.178-.178.233-.167.5.111zM7.161 14.4c.211.1.389.211.389.244-.011.034-.244.178-.533.311-.289.144-.777.5-1.099.8-.444.433-.677.566-1.066.622-.655.1-.966 0-.966-.322 0-.411.5-.855 1.677-1.51.689-.377 1.044-.411 1.599-.144zm136.988.045c.811.422 1.688 1.066 1.843 1.366.222.411.045.555-.711.555-.588.011-.622-.011-1.243-.61-.355-.355-.855-.744-1.11-.866-.267-.133-.477-.255-.477-.289 0-.111.633-.377.922-.389.167 0 .522.111.777.233zm-133.379.089c0 .111-.278.233-.533.233-.133-.011-.111-.056.089-.167.322-.189.444-.2.444-.067zm128.905.122c.133.089.1.111-.133.111-.178 0-.311-.056-.311-.111 0-.144.222-.144.444 0zm-120.722.278c-.267.244-.744.377-.744.222 0-.067.8-.488.944-.488.067 0-.034.122-.2.267zM131.27 14.9c.322.167.411.255.278.289-.2.034-.811-.233-.922-.422-.111-.178.144-.133.644.133zm-111.551.833c.311.144.833.211 1.921.255 1.01.034 1.51.1 1.532.189.078.222-.689.289-2.276.222-1.566-.078-1.799-.144-1.799-.588 0-.322.067-.322.622-.078zm111.151-.011c.034.1-.034.267-.167.4-.2.211-.4.244-1.665.289-.8.022-1.632.011-1.865-.034-.411-.067-.422-.089-.211-.233.156-.122.544-.156 1.466-.144 1.077.011 1.299-.022 1.61-.211.444-.278.744-.3.833-.067zM16.01 5.907c.034.078.2.178.389.222.366.1 1.254.888 1.254 1.11 0 .078-.067.455-.144.833-.133.588-.122.677 0 .566.3-.244.477-.744.477-1.343 0-.755-.289-1.099-1.121-1.343-.7-.211-.911-.222-.855-.045zm117.08.034c-.966.244-1.41.966-1.177 1.898.067.267.189.544.278.61.178.144.178.156.156-.8-.022-.888.144-1.11.966-1.377.322-.1.61-.222.644-.278.1-.156-.333-.189-.866-.056zM14.434 15.433a.12.12 0 0 0 .111.111.112.112 0 0 0 .111-.111.105.105 0 0 0-.111-.111.112.112 0 0 0-.111.111zm120.078 0c.034.056.111.111.178.111.056 0 .1-.056.1-.111 0-.067-.078-.111-.178-.111-.089 0-.133.045-.1.111zm.61 0c0 .056.078.111.167.111s.167-.056.167-.111c0-.067-.078-.111-.167-.111s-.167.045-.167.111z"/></svg>