<?xml version="1.0" encoding="UTF-8"?>
<svg id="Layer_1" data-name="Layer 1" xmlns="http://www.w3.org/2000/svg" viewBox="0 0 482.06 509.49">
  <defs>
    <style>
      .cls-1 {
        fill: #d8bda5;
      }

      .cls-1, .cls-2, .cls-3, .cls-4, .cls-5, .cls-6, .cls-7, .cls-8, .cls-9, .cls-10 {
        stroke-width: 0px;
      }

      .cls-2 {
        fill: #a5bcd4;
      }

      .cls-11 {
        fill: none;
        stroke: #b66900;
        stroke-miterlimit: 10;
        stroke-width: .5px;
      }

      .cls-3 {
        fill: #feab3b;
      }

      .cls-4 {
        fill: #506894;
      }

      .cls-5 {
        fill: #879abe;
      }

      .cls-6 {
        fill: #3e5173;
      }

      .cls-7 {
        fill: #f88f01;
      }

      .cls-8 {
        fill: #36577a;
      }

      .cls-9 {
        fill: #fecf8f;
      }

      .cls-10 {
        fill: #b66900;
      }
    </style>
  </defs>
  <path class="cls-8" d="m130.32,152.15c-17.74,45.17-28.21,105.35-7.21,147.35,3.72,7.43,8.55,15.02,12.88,22.09,11.57,18.46,24.45,36.73,41.71,50.15,3.82,2.91,9.18,5.82,13.28,8.38,15.84,9.89,33.85,16.15,52.26,19.23,25.16,4.11,51.12,1.6,75.52-5.71,4.16-1.19,8.24-2.61,12.34-3.99-4.77,2.56-9.65,5.03-14.66,7.13-19.2,8.21-40.12,12.74-61.07,12.56-24.62-.16-49.43-6.45-70.75-18.93-5.69-3.23-12.05-6.55-17.11-10.68-21.06-16.87-36.48-36.93-49.42-60.24-6.61-11.72-11.24-27.35-14.2-40.46-9.57-42.5,4.26-89.3,26.41-126.89h0Z"/>
  <polygon class="cls-8" points="354.15 197.76 350.85 203.81 344.8 207.12 350.85 210.43 354.15 216.47 357.46 210.43 363.51 207.12 357.46 203.81 354.15 197.76 354.15 197.76"/>
  <polygon class="cls-8" points="321.13 164.46 317.82 170.51 311.77 173.81 317.82 177.12 321.13 183.17 324.44 177.12 330.49 173.81 324.44 170.51 321.13 164.46 321.13 164.46"/>
  <polygon class="cls-8" points="356.56 146.63 353.25 152.68 347.2 155.99 353.25 159.29 356.56 165.34 359.86 159.29 365.91 155.99 359.86 152.68 356.56 146.63 356.56 146.63"/>
  <path class="cls-1" d="m345.51,313.94l-.02,1.39h.4s-.09-.77-.09-.77l.48,1.01-.51-1.23.03.22-.29-.62Zm0,0"/>
  <path class="cls-2" d="m341.69,280.37c-.15,0-.26.03-.33.08-.74.21.75,2.24,4.46,6.08l51.68,31.77.02-2.83.02-3.18h0c-20.63-12.59-34.08-20.65-40.34-24.2l-6.7-3.77-4.67-2.43c-2.12-1.01-3.5-1.52-4.15-1.52h0Zm0,0"/>
  <path class="cls-5" d="m199.23,317.02v1.98s3.55,2.69,3.55,2.69l2.09.02.06-4.63-5.69-.06h0Zm0,0"/>
  <rect class="cls-5" x="218.83" y="316.4" width="6.98" height="5.59"/>
  <rect class="cls-5" x="238.92" y="316.61" width="6.89" height="4.49"/>
  <path class="cls-5" d="m290.89,314.5c-.72.17-1.36.55-1.9,1.14-.6.69-1.01,1.47-1.22,2.32-.21,1.02-.22,1.79-.03,2.3.27.82.71,1.49,1.32,1.99.63.49,1.29.76,1.98.81.95.07,1.75-.06,2.41-.38.34-.18.62-.43.82-.76.1-.15.19-.31.26-.45.32-.79.59-1.37.8-1.75.12-.24.38-.62.78-1.14l-5.22-4.07"/>
  <path class="cls-5" d="m314.36,314.5l-6.98.97c-.17,1.07-.22,2.31-.16,3.74.05,1.07.23,1.95.56,2.64.26.55.67,1.01,1.21,1.36.56.37,1.09.57,1.6.62.4.06.86-.02,1.36-.24.79-.43,1.32-.81,1.59-1.15.45-.51.77-.99.96-1.45.36-.89.55-1.56.56-2.02.09-.86.07-1.7-.06-2.52-.11-.68-.32-1.33-.64-1.97"/>
  <path class="cls-5" d="m333.97,314.5l-6.5,1.97c-.16,1.2-.17,2.45-.03,3.77.07.61.14,1.01.21,1.2.16.49.32.81.48.98.24.34.63.58,1.17.72.27.09.8.06,1.59-.11.56-.11,1.22-.4,1.97-.87.53-.33.98-.75,1.35-1.26.31-.42.54-.88.69-1.38.17-.76.25-1.45.21-2.09-.01-.98-.39-1.95-1.13-2.93"/>
  <path class="cls-5" d="m356.36,316.55c-.9.03-1.58.52-2.05,1.49-.46,1.03-.57,2.23-.34,3.63.26,1.42.78,2.63,1.57,3.63.82.99,1.68,1.5,2.57,1.52.9-.02,1.58-.52,2.05-1.48.46-1.02.57-2.23.35-3.63-.26-1.42-.78-2.63-1.57-3.63-.82-.99-1.68-1.5-2.57-1.52"/>
  <path class="cls-5" d="m371.03,319.52c-1,.02-1.85.58-2.53,1.69-.67,1.15-.98,2.51-.94,4.09.06,1.59.46,2.96,1.21,4.12.76,1.12,1.65,1.69,2.65,1.71,1-.02,1.85-.58,2.53-1.69.67-1.14.98-2.51.94-4.09-.06-1.59-.46-2.96-1.21-4.12-.76-1.12-1.64-1.69-2.65-1.72"/>
  <path class="cls-5" d="m385,325.1c-.95.02-1.73.54-2.31,1.59-.56,1.08-.78,2.36-.64,3.85.16,1.49.63,2.78,1.41,3.87.81,1.06,1.69,1.59,2.64,1.61.96-.01,1.73-.54,2.32-1.58.57-1.07.78-2.36.65-3.87-.16-1.49-.63-2.78-1.42-3.87-.81-1.05-1.69-1.59-2.64-1.6"/>
  <path class="cls-4" d="m203.87,295.04c-.78.02-1.46.14-2.04.38l-2.18,4.21c2.05-1.7,3.4-1.71,4.07-.05.33.8.49,1.98.49,3.55,0,.8-.02,1.65-.07,2.53l-.22,3.29c-.04.51-.1.99-.16,1.45-.02.07.15.11.49.11,1.47-.1,2.82-.88,4.04-2.35.69-.85,1.02-2.37,1.01-4.55-.01-.8-.13-1.56-.35-2.26-.48-1.65-.72-2.46-.73-2.4-.11-.36-.31-.77-.6-1.24-.42-.71-1.13-1.41-2.12-2.11-.4-.35-.94-.54-1.63-.56"/>
  <path class="cls-4" d="m222.66,295.22c-.89.03-1.64.2-2.26.51l-2.44,6.08c.81-1.07,1.69-1.78,2.63-2.1.72-.23,1.38.01,1.99.71.58.71.92,1.7,1.02,2.97.04.44.05.92.03,1.44l-.28,3.15c-.04.5-.04.88,0,1.16.11.25.45.37,1.04.38.65,0,1.33-.22,2.05-.66.61-.38,1.05-.86,1.33-1.44.36-.78.57-1.54.64-2.28.12-1.14.11-2.27-.01-3.4-.27-1.98-1-3.65-2.18-5.03-.47-.51-.95-.87-1.44-1.08-.71-.29-1.4-.42-2.1-.41"/>
  <path class="cls-4" d="m243.44,295.5c-.51,0-1.1.14-1.77.42-.41.17-.86.47-1.35.9-1.24,1.06-2.01,2.18-2.33,3.35l.12,2.07c1.13-.88,2.12-1.37,2.97-1.48.85.04,1.46.44,1.84,1.21.16.34.26.65.31.94.11.63.17,1.23.17,1.81-.01.49-.04.97-.09,1.44-.27,2-.41,3.32-.43,3.96.03.18.16.27.4.26.81-.05,1.39-.17,1.75-.36.91-.4,1.55-.79,1.9-1.17.69-.79,1.08-2.03,1.17-3.71.05-.87-.07-2.19-.36-3.99-.27-1.79-.53-2.92-.79-3.42-.75-1.38-1.92-2.12-3.52-2.22"/>
  <path class="cls-4" d="m290.47,294.73c-.79.09-1.74.67-2.85,1.75-1.16,1.3-1.95,2.51-2.36,3.65-.09.26-.17.53-.24.8l-.3,1.46c-.32,1.26-.48,1.94-.49,2.05-.18.93-.29,1.82-.33,2.68-.09,1.46.22,2.59.92,3.39.6.61,1.17.81,1.73.59.91-.38,1.57-1,1.97-1.85.11-.23.15-.71.13-1.43-.01-.33-.04-.7-.07-1.11-.17-1.54-.25-2.41-.26-2.6-.03-.37-.03-.85,0-1.44.07-.86.15-1.47.26-1.83.21-.75.43-1.26.64-1.53.53-.81,1.09-1.33,1.68-1.56.4-.19,1.15-.18,2.27.04l-2.7-3.04"/>
  <path class="cls-4" d="m309.19,294.77c-.34.15-.82.52-1.42,1.1-.68.63-1.44,1.47-2.29,2.51-.52.66-.93,1.24-1.21,1.75-.2.35-.36.75-.49,1.21-.19.69-.28,1.38-.26,2.08.05,1.74.12,2.99.23,3.76.21,1.48.6,2.48,1.19,3.03,1.35,1.13,2.47,1.14,3.37.02.09-.17.12-.36.12-.57l-.12-5.08c-.01-.67-.01-1.32.01-1.94.01-.95.12-1.79.32-2.51.35-1.06.87-1.82,1.54-2.29.61-.4,1.24-.46,1.88-.18l-2.87-2.87"/>
  <path class="cls-4" d="m327.09,294.68c-.74.92-1.55,2.21-2.44,3.89-.47,1.03-.93,2.47-1.37,4.32-.66,2.79-.99,4.7-.96,5.75.03,1.22.37,2.03,1.02,2.44.62.38,1.25.46,1.89.25.94-.26,1.68-.76,2.22-1.47.1-.13.14-.34.13-.62l-.17-3.44c-.03-.95-.02-1.7.01-2.26.14-1.89.35-3.13.6-3.71.3-.91.83-1.65,1.6-2.24.4-.21.7-.3.9-.29.07-.02.49.06,1.25.27l-4.66-2.86"/>
  <path class="cls-4" d="m356.77,296.71c-.53.07-1.05.5-1.56,1.28-.13.3-.29.77-.48,1.43l-.67,2.55c-.07.27-.13.56-.18.85-.09.55-.15.97-.17,1.27l-.25,3.92c-.02.39-.12,1.34-.32,2.84-.02.2-.04.5-.04.89-.02,1.17.16,2.12.55,2.86,1.04,1.59,1.93,2.18,2.67,1.75.05-.16.09-.65.12-1.48.04-1.88.06-3.97.08-6.27.01-.66.03-1.31.07-1.95.06-1.28.19-2.29.41-3.04.35-1.19.89-1.89,1.63-2.08.3-.13.85.4,1.66,1.58l-3.5-6.39"/>
  <path class="cls-4" d="m372.12,304.5c-1.61-2.87-2.37-1.32-3.14-.4-.5.6-1.01,1.53-1.34,2.97-.21.95-.34,1.78-.4,2.5-.06.7-.13,2.47-.21,5.31-.04,2.43.1,4.15.41,5.16.2.73.53,1.38.99,1.95.65.65,1.02.8,1.1.47.13-.49.2-1.21.21-2.18.01-.32.02-.83.02-1.53-.03-2.64-.04-4.26-.02-4.83.01-.88.05-1.64.1-2.28.08-1.11.34-1.97.78-2.59.56-.75,1.17-1.06,1.82-.92.47.24.9.93,1.3,2.08l-2.62-5.71"/>
  <path class="cls-4" d="m385.25,311.78c-1.1.14-1.84.66-2.24,1.56-.06.14-.12.35-.18.63-.34,1.44-.55,2.32-.61,2.65l-.49,2.49-.44,2.02c-.08.44-.14.8-.16,1.08-.1,1.5.02,2.7.38,3.6.64,1.32,1.35,2,2.13,2.05.33-.01.56-.09.69-.24.09-.03.15-.31.19-.83.04-.41.05-1.13.02-2.16.02.05-.06-1.38-.23-4.27-.03-.65-.05-1.24-.05-1.76-.02-.86.06-1.52.25-2,.38-.98.95-1.48,1.7-1.52.39-.09.85.51,1.38,1.79l-1.4-4.65c-.47-.33-.78-.48-.92-.44"/>
  <path class="cls-2" d="m186.81,264.06l-24.2,14.55,3.08,4.09,21.73-12.23-.61-6.4v-.02Zm0,0"/>
  <path class="cls-2" d="m200.57,262.58l-12.3.62-1.45.87-4.08,2.45,6.48,3.63,156.16.98,51.77,29.19.05-7.77-51.23-28.45-37.02-.54h0l-108.37-.98Zm0,0"/>
  <path class="cls-2" d="m186.71,283.18l-14.27,8.39,2.21,2.79,13.02-7.22-.95-3.92v-.04Zm0,0"/>
  <path class="cls-2" d="m176.05,286.76c15.85.12,15.9.12.17,0m12.62-3.85l-.76,3.94,157.92,1.23h.28s.19-4.46.19-4.46l-157.61-.71"/>
  <path class="cls-4" d="m265.43,296.44c-4.13.05-7.68,1.51-10.65,4.39-2.91,3-4.4,6.55-4.45,10.66,0,1.14.13,2.24.36,3.3l3.95-.03h.6c.07-3.65.38-6.51.93-8.56.6-2.37,1.75-3.86,3.45-4.47h.03c.62-.27,1.44-.4,2.44-.4,1.47,0,3.34.28,5.62.83,3.06.74,5.23,1.78,6.52,3.12,1.87,1.9,2.47,5.18,1.79,9.85l4.01.07c.28-1.15.43-2.35.45-3.6-.03-4.12-1.49-7.68-4.38-10.69-2.95-2.89-6.49-4.37-10.62-4.45h-.06Zm0,0"/>
  <path class="cls-8" d="m187.99,275.11h0c-.25,0-.52.06-.8.19l-18.96,10.75h0c.66.87,1.29,1.7,1.9,2.5l18.13-10.27h0l.53-.3c.74-.57.9-1.28.5-2.12-.27-.36-.57-.6-.9-.69-.12-.04-.25-.05-.39-.05h0Zm0,0"/>
  <path class="cls-8" d="m188,281.53s-.05,0-.08,0c-.23.01-.48.08-.73.21l-15.54,8.81h0c.67.88,1.31,1.71,1.92,2.49l15.2-8.62s.02-.02.03-.03c.77-.66.94-1.37.5-2.12-.38-.5-.82-.74-1.3-.74h0Zm0,0"/>
  <path class="cls-2" d="m264.32,237.91l-40.82,4.66-15.93,2.14c-.08,2.08-.04,4.17.11,6.28-.02-.21-.07-.31-.16-.31-.16,0-.44.36-.84,1.07-.6,1.22-.86,2.11-.8,2.66-1.13.33-2.29.67-3.47,1.01l1.14,7.65,6.05.03h.02c.27-2.94,1.43-5.28,3.49-7.04,1.95-1.73,5.33-3.34,10.14-4.83,5.26-1.63,12.15-3.11,20.67-4.44,6.06-.99,17.9-2.4,35.51-4.24l-15.12-4.63Zm0,0"/>
  <path class="cls-3" d="m268.05,186.24c-6.8-.34-14.62,1.6-23.48,5.84-9.17,4.33-16.46,9.48-21.88,15.44-5.15,5.75-9.13,12.55-11.92,20.43-2.63,7.49-3.66,15.19-3.08,23.08-.2-.6-.65-.12-1.34,1.46-.57,1.4-.63,2.12-.17,2.16,2.39-1.44,8.26-3.67,17.62-6.69,5.42-1.54,9.76-2.68,13.01-3.43,8.18-1.99,16.74-2.97,25.67-2.95,16.91.27,29.39,1.19,37.45,2.75,3.81.71,7.68,1.76,11.61,3.15,1.75.61,3.73,1.37,5.94,2.27l9.91,4.22c1.26-19.77-3.48-35.7-14.22-47.78-6.5-7.31-13.55-12.73-21.14-16.26-5.78-2.8-13.74-4.03-23.86-3.68"/>
  <path class="cls-7" d="m284.49,187.42c13.82,13.44,22.29,24.3,25.4,32.58,2.15,4.99,3.59,10.62,4.33,16.89.27,2.15.63,6.14,1.05,11.97h0c3.68,1.42,7.72,3.16,12.11,5.2.97-8.64-.01-17.99-2.96-28.03l-.04-.13c-4.22-13.43-13.61-24.7-28.15-33.82-3.78-2.18-7.69-3.73-11.73-4.65h0Zm0,0"/>
  <path class="cls-9" d="m271.41,185.69l-5.84.59h0,0l-6.69.68c-.54.12-1.02.25-1.44.4-16.7,5.04-29.18,12.83-37.43,23.38-4.26,5.58-7.5,11.79-9.72,18.63-2.27,7.01-3.14,14.22-2.61,21.63-.02-.21-.07-.31-.16-.31-.16,0-.44.36-.84,1.07-.6,1.23-.87,2.11-.8,2.66.08.16.17.25.26.25.04,0,.08-.02.13-.05,1.33-.84,4.09-2.02,8.3-3.53.5-15.73,4.88-29.23,13.14-40.51,5.07-6.64,11.56-12.23,19.47-16.78,5.69-3.37,12.76-5.89,21.21-7.56h0,0c.98-.19,1.98-.37,2.99-.55h.03Zm0,0"/>
  <path class="cls-4" d="m265.43,249.78c-.72,0-1.53.18-2.43.54-.88.36-1.52.77-1.93,1.23l-1.02,4.87c.98-1.71,1.94-2.76,2.89-3.16.97-.4,1.87-.23,2.71.52.98.94,1.51,2.2,1.6,3.76.04.68,0,1.34-.12,1.98-.07.38-.15.73-.23,1.04-.06.26-.25.88-.57,1.86-.06.18-.07.3-.05.36.21.43.7.65,1.49.65,1.34-.03,2.45-.63,3.33-1.8.71-1.07.96-2.44.73-4.12-.66-2.4-1.62-4.33-2.88-5.8-.96-1.25-2.13-1.9-3.5-1.94"/>
  <path class="cls-4" d="m288.23,252.27c-.45,0-1.07.05-1.85.16l-2.99,3.01c1.4-.92,2.43-1.34,3.1-1.26.99.01,1.82.49,2.49,1.44.58.84.84,1.84.79,3.02.02.49-.02,1.12-.12,1.91-.22,1.45-.43,2.48-.61,3.09,0,.01.02.02.04.02.67-.16,1.53-.51,2.57-1.05.62-.32,1.16-.73,1.63-1.22,1-1.07,1.42-2.23,1.28-3.48,0-.49-.24-1.29-.75-2.42-.38-.79-.76-1.34-1.12-1.65-.46-.44-1.18-.83-2.15-1.18-.49-.22-1.26-.35-2.3-.4"/>
  <path class="cls-4" d="m312.42,256.09c-.28,0-.49.01-.63.03l-2.84,1.15c1.4-.05,2.35.4,2.83,1.35.27.61.35,1.26.24,1.95-.05.33-.16.71-.32,1.13-.17.42-.38.87-.64,1.36-.02.04-.03.09-.03.14,0,.11.38.19,1.15.22,1.44-.05,2.69-.36,3.75-.93.54-.33.9-.64,1.07-.93.3-.43.45-.85.45-1.25-.04-.94-.69-2-1.95-3.19-.39-.33-.87-.6-1.45-.8-.55-.16-1.09-.24-1.63-.23"/>
  <path class="cls-4" d="m240.71,252.65c-1.11.6-1.83,1.24-2.17,1.93-.36.64-.62,1.2-.78,1.67-.47,1.34-.71,2.22-.74,2.61-.07.76-.07,1.34-.02,1.73.07.44.21.86.43,1.27.18.31.41.57.7.76.55.32.99.52,1.33.58.62.11,1.18.11,1.66-.02.65-.16,1.09-.42,1.33-.79.08-.12.12-.26.13-.42-.2-1.34-.26-2.39-.19-3.14.03-.59.17-1.25.4-1.97.43-1.17.76-1.89.99-2.16.54-.67,1.06-1.07,1.55-1.21l-4.62-.85"/>
  <path class="cls-4" d="m220.59,257.83l-4.96.12c-.41.23-.76.57-1.07,1.01-.48.71-.77,1.28-.89,1.72-.19.62-.21,1.12-.04,1.49.21.39.67.72,1.36,1,.47.2,1.06.27,1.75.21.73-.1,1.22-.3,1.48-.6.06-.09.09-.16.09-.21-.05-.95-.05-1.6,0-1.98.09-.59.2-1.02.35-1.3.44-.89,1.07-1.38,1.9-1.45"/>
  <path class="cls-8" d="m250.28,281h-.05c-.17.02-.32.06-.47.11l18.41-.05-17.89-.05Zm0,0"/>
  <path class="cls-8" d="m286.06,281l-17.89.05,18.41.05c-.14-.05-.3-.08-.47-.1h-.05Zm0,0"/>
  <path class="cls-6" d="m249.76,281.11l-61.01.18c-.95.09-1.46.62-1.55,1.57.09.94.6,1.45,1.53,1.55l79.44-.23-17.98-.05c-.91-.14-1.4-.66-1.47-1.58.07-.74.42-1.21,1.04-1.43h0Zm0,0"/>
  <path class="cls-6" d="m286.58,281.11c.62.21.97.69,1.04,1.43-.06.92-.55,1.45-1.47,1.58l-17.98.05,79.43.23c.93-.1,1.44-.62,1.53-1.55-.09-.95-.6-1.47-1.55-1.57l-61.01-.18h0Zm0,0"/>
  <path class="cls-8" d="m249.93,275.12h-.04s-.07,0-.11.01h17.31s-17.17-.01-17.17-.01Zm0,0"/>
  <path class="cls-8" d="m284.25,275.12h-17.16s17.3.01,17.3.01c-.03,0-.07,0-.11-.01h-.04Zm0,0"/>
  <path class="cls-6" d="m249.78,275.14l-61.44.02c-.93.09-1.44.6-1.55,1.53.06.93.55,1.46,1.49,1.59l78.81-.03h-17.21c-.93-.12-1.44-.64-1.52-1.57.09-.9.56-1.41,1.42-1.54h0Zm0,0"/>
  <path class="cls-6" d="m284.4,275.14c.85.13,1.32.64,1.42,1.54-.08.93-.59,1.46-1.52,1.56h-17.2s78.8.04,78.8.04c.93-.13,1.43-.66,1.49-1.59-.1-.93-.62-1.44-1.55-1.53l-61.44-.02h0Zm0,0"/>
  <path class="cls-6" d="m348.29,281.56s.05,0,.08,0c.23.03.47.11.72.25l48.41,31.06h0c-.14,1.06-.3,2.2-.45,3.41l-49.68-31.87s-.02-.02-.03-.03c-.74-.7-.86-1.42-.38-2.15.41-.47.86-.7,1.34-.67h0Zm-.02-6.38h.03s-.03,0-.03,0Zm.39-.03c.25.01.51.09.79.23l48.95,31.4h0c-.16.98-.34,2.11-.52,3.37l-49.65-31.86h0,0s-.52-.33-.52-.33c-.71-.61-.83-1.32-.38-2.14.28-.35.6-.56.94-.64.13-.03.26-.04.39-.03h0Zm0,0"/>
  <path class="cls-6" d="m308.53,296.63c1.7.1,2.84.95,3.41,2.55.14.82.18.98.13.5l.03,2.47-.13,6.34-6.92.03.05-9.31c.57-1.61,1.7-2.47,3.4-2.57m-.09-2.58c-2.86.19-4.72,1.59-5.58,4.21l-.09,12.17c.05.45.29.7.73.74l9.87-.04c.27-.02.48-.2.61-.52l.23-11.21-.34-1.48c-.97-2.41-2.75-3.7-5.35-3.88h-.09Zm0,0"/>
  <path class="cls-6" d="m289.05,294.23c-.63,0-1.27.11-1.91.32h-.02c-1.49.55-2.59,1.54-3.3,2.97-.14.3-.25.6-.34.91,0,0,0,0,0,0h0c-.07.25-.13.5-.16.75v.07s0-.07,0-.07h0c-.08.54-.08,1.09,0,1.64h0l.07,9.78c0,.17.06.33.16.46.14.18.33.28.58.29l9.84-.04c.4-.07.62-.3.68-.71l.19-11c0-.11-.03-.22-.07-.31h0s0-.06-.01-.1h0s0,0,0,0c-.05-.37-.14-.73-.26-1.1-.54-1.48-1.52-2.58-2.94-3.29-.81-.38-1.64-.57-2.48-.57h0Zm.12,2.58c.52,0,1.04.12,1.54.35.88.45,1.49,1.12,1.82,2.03.1.31.16.61.19.9v-.26s0,.26,0,.26h0c.01.17.02.34,0,.51l.02,1.73-.11,6.32-6.95.03h-.02s-.04-4.94-.04-4.94h0s.04.04.06.06l-.03-2.76c-.02-.1-.03-.21-.05-.31h0v-.67h0c0-.1.02-.19.04-.29h0c.05-.32.15-.63.3-.94.45-.89,1.12-1.49,2.03-1.82h.01c.4-.14.8-.21,1.19-.21h0Zm0,0"/>
  <path class="cls-6" d="m328.13,294.3c-.63,0-1.27.11-1.91.32h-.02c-1.49.55-2.59,1.54-3.3,2.97-.14.3-.25.6-.34.91h0c-.07.25-.13.5-.16.75h0v.07s0-.07,0-.07h0c-.08.54-.08,1.09,0,1.64h0l.07,9.77c0,.17.06.33.16.46.14.18.33.28.58.3l9.84-.04c.4-.07.62-.3.68-.71l.19-11c0-.11-.03-.22-.07-.31h0s0-.06-.01-.1c0,0,0,0,0,0-.05-.37-.14-.73-.26-1.1-.54-1.48-1.52-2.58-2.94-3.29-.81-.38-1.64-.57-2.48-.57h0Zm.12,2.58c.52,0,1.04.12,1.54.35.88.45,1.49,1.12,1.82,2.03.1.3.16.6.19.9h0v-.25s0,.27,0,.27c.01.17.02.34,0,.51h0l.02,1.73-.11,6.32-6.95.03h-.02s-.04-4.94-.04-4.94h0s.04.04.05.06l-.03-2.76c-.02-.1-.03-.2-.05-.31h0v-.67h0c0-.1.02-.19.04-.29h0c.05-.32.15-.63.3-.94.45-.89,1.12-1.49,2.03-1.82h.01c.4-.14.8-.21,1.19-.21h0Zm0,0"/>
  <path class="cls-8" d="m254.05,264.91c.18.07.37.1.55.1.05,0,.1,0,.15,0l12.72-.05-13.43-.05h0Zm0,0"/>
  <path class="cls-8" d="m280.9,264.91l-13.43.05,12.72.05c.05,0,.1,0,.16,0,.18,0,.37-.04.55-.1h0Zm0,0"/>
  <path class="cls-6" d="m188.61,261.46c-.34.01-.61.09-.81.22l-23.09,13.37c-.61.5-.8,1.12-.58,1.84.3.71.83,1.06,1.58,1.06h.04c.18,0,.41-.07.68-.2l22.65-13.09,64.98.24c-.13-.05-.26-.11-.38-.19-1.1-1.32-.84-2.29.78-2.9l13.03-.05-78.76-.29h-.11Zm0,0"/>
  <path class="cls-6" d="m346.34,261.46h-.11l-78.76.29,13.03.05c1.62.62,1.87,1.59.78,2.9-.13.08-.26.15-.38.19l64.98-.24,22.65,13.09c.27.13.5.2.68.2h.04c.75,0,1.27-.35,1.58-1.06.22-.73.03-1.34-.58-1.84l-23.09-13.37c-.21-.13-.48-.21-.81-.22h0Zm0,0"/>
  <path class="cls-6" d="m374.21,277.86c-1.54.32-1.93,1.22-1.18,2.69l5.71,3.18c.23.12.47.18.74.18,1.52-.36,1.93-1.23,1.23-2.62l-5.69-3.21c-.23-.13-.47-.2-.73-.22h-.07Zm0,0"/>
  <path class="cls-6" d="m384.24,282.94s-.05,0-.08,0h-.12c-1.55.46-1.85,1.4-.91,2.83l12.23,7.59-.43,36.54c1.05-.87,2.13-1.77,3.23-2.7h0l.41-34.96c-.12-.54-.37-.92-.75-1.13l-12.82-7.93c-.32-.17-.58-.25-.77-.25h0Zm0,0"/>
  <path class="cls-8" d="m299.12,353.96c-.95.05-1.49.61-1.6,1.66.09.95.66,1.47,1.71,1.54,3.24.43,4.8-.11,4.66-1.62.09-1.47-1.49-1.99-4.72-1.58h-.06Zm0,0"/>
  <path class="cls-8" d="m293.22,354.19h-.06s-25.68.21-25.68.21l3.94.03h.01c.08,0,.15,0,.21.01.93.19,1.39.76,1.41,1.72-.04.43-.22.78-.53,1.07-.18.16-.38.27-.6.34l21.27-.18h0c.08,0,.15,0,.21-.01.92-.19,1.38-.75,1.41-1.69-.14-.93-.67-1.43-1.6-1.5h0Zm0,0"/>
  <path class="cls-8" d="m242.4,354.19l3.78,3.23,16.85.14c-.21-.07-.41-.18-.6-.34-.32-.29-.49-.65-.53-1.07.01-.95.48-1.53,1.41-1.72.06,0,.13-.01.21-.01h.01l3.94-.03-25.08-.21Zm0,0"/>
  <path class="cls-8" d="m263.03,357.57c.15.05.31.07.48.07.02,0,.03,0,.05,0l3.91-.03-4.44-.04h0Zm0,0"/>
  <path class="cls-8" d="m271.92,357.57l-4.44.04,3.91.03s.03,0,.05,0c.17,0,.33-.02.48-.07h0Zm0,0"/>
  <path class="cls-8" d="m188.1,262.5c-.98.1-1.51.61-1.6,1.56l.04,43.59h0c1.08,1.02,2.15,2.02,3.2,2.99l-.04-46.62c-.11-.92-.64-1.43-1.6-1.52h0Zm0,0"/>
  <path class="cls-6" d="m346.85,262.5h0c-.96.09-1.49.6-1.6,1.54l-.08,89.68c.07.98.61,1.51,1.61,1.61.96-.09,1.49-.6,1.6-1.56l.08-89.69c-.09-.95-.62-1.48-1.6-1.58h0Zm0,0"/>
  <path class="cls-6" d="m203.07,254.42c-.38,0-.73.13-1.03.38-.3.26-.48.58-.55.96-.02.09-.02.18-.02.28l.05,7.58,3.2-.03-.05-7.58c0-.1-.01-.19-.03-.27-.07-.37-.25-.69-.55-.94-.3-.24-.64-.37-1.02-.37"/>
  <path class="cls-6" d="m331.88,254.42c.38,0,.73.13,1.03.38.3.26.48.58.55.96.02.09.02.18.02.28l-.05,7.58-3.2-.03.04-7.58c0-.1.01-.19.03-.27.07-.37.25-.69.55-.94.3-.24.64-.37,1.02-.37"/>
  <path class="cls-10" d="m211.65,220.77c-3.65,7.91-5.54,16.57-5.68,25.97.03,1.99.13,3.95.32,5.87.11,1.19.26,2.37.43,3.54,1.01-.47,2.02-.93,3.04-1.38-.16-1.16-.29-2.34-.38-3.53-.11-1.36-.18-2.73-.21-4.12.08-9.22,1.94-17.7,5.58-25.42h0l-3.1-.93Zm0,0"/>
  <path class="cls-10" d="m218.85,208.92c-2.2,2.86-4.13,5.84-5.77,8.94l3.13.94c1.59-2.93,3.45-5.75,5.58-8.45l-2.95-1.42h0Zm0,0"/>
  <path class="cls-10" d="m268.06,184.63c-18.99.36-34.7,7.61-47.12,21.75l2.98,1.41c9.38-10.29,20.55-16.61,33.51-18.96,12.36-2.13,24.24-.61,35.64,4.55,11.68,5.77,20.46,13.92,26.34,24.44,6.46,11.6,8.76,24.23,6.87,37.88,1,.46,2,.94,3,1.42,2.78-19.26-1.83-36.08-13.81-50.49-12.41-14.27-28.18-21.61-47.34-22.01h-.08Zm0,0"/>
  <path class="cls-10" d="m268.73,180.01c-.48.33-1.02.5-1.64.51-.58,0-1.1-.16-1.56-.45h0l.06,2.76.04,1.88h0,0l.02,1.01h0,0l.05,2.18c.7-.03,1.41-.06,2.12-.07h.25c.28,0,.55.01.83.02l-.05-2.2h0,0l-.02-1.01h0,0l-.04-1.88-.06-2.75h0Zm0,0"/>
  <path class="cls-8" d="m253.7,309.65c-.18,1.2-.16,2.41.04,3.64l-.04-3.64h0Zm0,0"/>
  <path class="cls-6" d="m265.57,299.41c-1.3,0-2.62.22-3.96.65l-.04.02c-3.09,1.13-5.36,3.18-6.83,6.13-.29.62-.52,1.25-.7,1.88h0c-.15.52-.26,1.04-.34,1.56h0l.04,3.64c.11.68.28,1.35.51,2.04.63,1.72,1.55,3.19,2.76,4.41l-.08-6.76h0c-.2-1.05-.21-2.09-.04-3.1h0v-.79s0,.79,0,.79c.13-.78.38-1.54.73-2.29,1.09-2.17,2.75-3.66,4.96-4.46h.03c.98-.34,1.95-.5,2.91-.5,1.28,0,2.54.29,3.78.87,2.16,1.09,3.64,2.75,4.45,4.98.25.75.4,1.49.46,2.21h0s0,0,0,0c.04.42.04.84.01,1.25h0l.08,7.49c.77-.84,1.42-1.81,1.97-2.9.68-1.47,1.07-2.97,1.15-4.47h0l-.02-1.57h0c-.02-.26-.05-.52-.09-.78h0s0,0,0,0c-.11-.76-.29-1.52-.55-2.28-1.11-3.06-3.14-5.33-6.09-6.81-1.68-.79-3.39-1.18-5.14-1.18h0Zm0,0"/>
  <path class="cls-8" d="m277.43,310.47l.02,1.56c.03-.52.02-1.04-.02-1.56h0Zm0,0"/>
  <path class="cls-6" d="m255.3,307.52c-.96.05-1.5.56-1.61,1.52l.54,48.37,3.14.11-.48-48.4c-.17-1.07-.69-1.6-1.56-1.6h-.04Zm0,0"/>
  <path class="cls-8" d="m277.44,311.28v.46s0,.3,0,.3v-.75Zm0,0"/>
  <path class="cls-6" d="m275.83,308.5c-.16,0-.34.02-.53.05h0c-.66.27-1.02.76-1.07,1.48v.65s.02,1.25.02,1.25h0s0,0,0,0l.02,2.02.45,40.39.04,3.2,3.2-.03-.04-3.2-.48-42.27h0s0-.21,0-.21v-.1s0-.04,0-.04h0s-.01-1.23-.01-1.23h0s0,0,0,0v-.36c-.02-.15-.05-.28-.09-.41-.22-.79-.72-1.19-1.51-1.19h0Zm0,0"/>
  <path class="cls-8" d="m258.12,255.8c0,.13-.01.26-.01.4,0,.09,0,.19,0,.28v-.68Zm0,0"/>
  <path class="cls-6" d="m265.72,251.82c2.29.18,3.73,1.35,4.31,3.51l.02-1.9-.12,8.32-8.67-.07c-.06-5.3.09-7.71.43-7.25.87-1.69,2.2-2.56,3.98-2.61m.04-3.2c-3.1.09-5.4,1.56-6.9,4.4-.4.87-.64,1.78-.69,2.74l-.04,9.23h.28s.09,0,.09,0h.09s2.66-.01,2.66-.01l.07-2.57c2.92,1.85,5.8,1.9,8.65.14v2.42s3.19-.03,3.19-.03l.18-8.91c-.03-1.03-.26-2.01-.67-2.94-1.48-2.86-3.76-4.35-6.86-4.47h-.06Zm0,0"/>
  <path class="cls-6" d="m243.69,251.25c-1.63.03-3.07.48-4.33,1.36-.36.25-.71.54-1.05.87-1.36,1.42-2.1,3.07-2.22,4.96h0v.68s-.04,2.53-.04,2.53l-.03,2.72v.07s0,.41,0,.41l15.11.06v-.48s0-.04,0-.04l.03-2.68.02-1.55h0c.07-.41.11-.82.11-1.25,0-.39-.03-.78-.09-1.15-.24-1.6-.94-3.02-2.12-4.24-.33-.32-.67-.61-1.03-.86-1.26-.89-2.71-1.35-4.34-1.39h-.03Zm4.35,3.01v.06s-.03,3.01-.03,3.01v.67s.03-3.74.03-3.74Zm-8.68-1.65l-.07,5.97c.07-1.07.49-2.01,1.27-2.82.84-.84,1.88-1.27,3.11-1.3h.02c1.19,0,2.23.44,3.12,1.3.63.65,1.03,1.4,1.19,2.25h0s-.02,1.82-.02,1.82c0,0,0,0,0,0h0l-.02,1.87-.03,2.7h-2.49s-6.22-.01-6.22-.01l.03-2.72.03-2.62h0s0,0,0,0v-.45s0,0,0,0h0l.07-5.97Zm0,0"/>
  <path class="cls-6" d="m218.69,255.83c-1.63.03-3.07.48-4.33,1.36-.36.25-.71.54-1.05.87-1,1.04-1.67,2.21-1.99,3.5-.12.47-.19.96-.22,1.46v.68s-.02,1.05-.02,1.05h3.2s.01-1.13.01-1.13h0s0-.46,0-.46h0,0l.02-1.59.05-4.38-.05,4.38-.02,1.59c.04-.56.17-1.09.41-1.59.21-.44.49-.85.86-1.23.85-.84,1.88-1.27,3.11-1.3h.02c1.19,0,2.23.44,3.12,1.3.37.39.67.81.88,1.27.14.31.25.64.32.98h0s-.02,1.82-.02,1.82h0s0,.39,0,.39h3.2s0-.06,0-.06h0c.07-.41.11-.82.11-1.25,0-.39-.03-.78-.09-1.15-.04-.24-.08-.48-.14-.72-.32-1.31-.98-2.49-1.98-3.53-.33-.32-.67-.61-1.03-.86-1.26-.89-2.71-1.35-4.34-1.39h-.03Zm4.35,3.01v.06s-.03,2.7-.03,2.7h3.05s-3.05,0-3.05,0v.31s0,.67,0,.67v-.98s-.32,0-.32,0h.33s.03-2.76.03-2.76Zm0,0"/>
  <path class="cls-6" d="m292.82,254.76v.09q-.03,2.78,0,0m-4.33-1.46c1.88.09,3.23.98,4.05,2.67.13.29.22.59.27.91l-.07,6.35-8.7-.04c-.05-5.3.09-7.71.42-7.25.86-1.69,2.18-2.57,3.97-2.64m.07-3.2c-2.86.06-5.07,1.36-6.64,3.9-.9.72-1.24,3.94-1.02,9.69l15.08.05c.45-5.5.22-8.7-.71-9.6-1.48-2.57-3.7-3.92-6.65-4.04h-.06Zm0,0"/>
  <path class="cls-6" d="m311.55,254.23c-5.17.57-7.7,3.54-7.59,8.92h.09s3.04.01,3.04.01c-.18-3.45,1.3-5.36,4.44-5.73,1.78.04,3.12.89,4.02,2.56h3.33s-3.32,0-3.32,0c.31.25.41,1.31.28,3.16l3.19.04c.31-5.3-2.18-8.29-7.45-8.97h-.03Zm0,0"/>
  <path class="cls-6" d="m223,294.18c-.63,0-1.27.11-1.91.32h-.02c-1.49.55-2.59,1.54-3.3,2.97-.14.3-.25.6-.34.91h0c-.07.25-.13.5-.16.75h0v.07s0-.06,0-.06h0c-.08.54-.08,1.09,0,1.64h0l.07,9.78c0,.17.06.33.16.46.14.18.33.28.58.3l9.84-.04c.4-.07.62-.3.68-.71l.19-11c0-.11-.03-.22-.07-.31,0-.03,0-.06-.01-.09,0,0,0,0,0,0-.05-.37-.14-.73-.26-1.1-.54-1.48-1.52-2.58-2.94-3.29-.81-.38-1.64-.57-2.48-.57h0Zm.12,2.58c.52,0,1.04.12,1.54.35.88.45,1.49,1.12,1.82,2.03.1.3.16.61.19.9v-.26s0,.26,0,.26c.01.17.02.34,0,.51h0l.02,1.73-.11,6.32-6.95.02h-.02s-.04-4.94-.04-4.94c.02.02.04.04.06.06l-.03-2.76c-.02-.11-.04-.21-.05-.32v-.67c0-.09.02-.19.03-.28h0c.05-.32.15-.63.3-.94.45-.89,1.12-1.49,2.03-1.82h.01c.4-.14.8-.21,1.19-.21h0Zm0,0"/>
  <path class="cls-6" d="m203.65,294.35c-.63,0-1.27.11-1.91.32h-.02c-1.49.55-2.59,1.54-3.3,2.97-.14.3-.25.6-.34.91h0c-.07.25-.13.5-.16.75v.07s0-.07,0-.07h0c-.08.54-.08,1.09,0,1.64h0l.07,9.78c0,.17.06.33.16.46.14.18.33.28.58.29l9.84-.04c.4-.07.62-.3.68-.71l.19-11c0-.11-.03-.22-.07-.31,0-.03,0-.06-.01-.09h0s0,0,0,0c-.05-.37-.14-.73-.26-1.1-.54-1.48-1.52-2.58-2.94-3.29-.81-.38-1.64-.57-2.48-.57h0Zm.12,2.58c.52,0,1.04.12,1.54.35.88.45,1.49,1.12,1.82,2.03.1.31.16.61.19.9v-.26s0,.27,0,.27h0c.01.17.02.34,0,.51l.02,1.73-.11,6.32-6.95.03h-.02s-.04-4.94-.04-4.94h0s.04.04.06.06l-.03-2.76h0c-.02-.1-.04-.21-.05-.31h0v-.67h0c0-.09.02-.19.04-.28h0c.05-.32.15-.63.3-.94.45-.89,1.12-1.49,2.03-1.82h.01c.4-.14.8-.2,1.19-.2h0Zm0,0"/>
  <path class="cls-6" d="m242.72,294.42c-.63,0-1.27.11-1.91.32h-.02c-1.49.55-2.59,1.54-3.3,2.97-.14.3-.25.6-.34.91-.07.25-.13.5-.16.75h0v.07s0-.07,0-.07h0c-.08.54-.08,1.09,0,1.64h0l.07,9.78c0,.17.06.33.16.46.14.18.33.28.58.3l9.84-.04c.4-.07.62-.3.68-.71l.19-11c0-.11-.03-.22-.07-.31h0s0-.06-.01-.09c0,0,0,0,0,0-.05-.37-.14-.73-.26-1.1-.54-1.48-1.52-2.58-2.94-3.29-.81-.38-1.64-.57-2.48-.57h0Zm.12,2.58c.52,0,1.04.12,1.54.35.88.45,1.49,1.12,1.82,2.03.1.31.16.61.19.9v-.26s0,.27,0,.27c.01.17.02.34,0,.51h0l.02,1.73-.11,6.32-6.95.03h-.02s-.04-4.94-.04-4.94c.02.02.04.04.06.06l-.03-2.76c-.02-.11-.04-.21-.05-.31v-.67c0-.09.02-.19.03-.28h0c.05-.32.15-.63.3-.94.45-.89,1.12-1.49,2.03-1.82h.01c.4-.14.8-.21,1.19-.21h0Zm0,0"/>
  <path class="cls-6" d="m274.26,313.9l.12,3.33,71.04.06,46.85,14.79,3.08-2.56-49.21-15.57-71.88-.05h0Zm0,0"/>
  <path class="cls-6" d="m214.5,313.86l-.03,3.33,39.31.03h3.2s-.04-3.33-.04-3.33h-3.2s-39.25-.02-39.25-.02Zm0,0"/>
  <path class="cls-8" d="m193.21,313.85l3.76,3.33h13.85c.28.03.38,0,.31-.06l-.03-3.26h-17.83s-.06-.01-.06-.01Zm0,0"/>
  <path class="cls-8" d="m176.65,295.92c-.24,0-.48.04-.72.13,0,0-.02,0-.02,0h0c1.77,2.27,3.08,3.9,3.94,4.9,0-.02,0-.04,0-.06h0c-.03-.32-.08-.63-.13-.93h0c-.07-.37-.15-.72-.25-1.07-.51-1.61-1.26-2.58-2.25-2.91h-.01c-.18-.05-.36-.07-.54-.07h0Zm0,0"/>
  <path class="cls-6" d="m356.42,298.78c1.29.15,2.2,1.51,2.75,4.06.17,1.13.23,5.55.16,13.26l-5.06-1.9.19-12.51c.27-1.79.9-2.76,1.87-2.9m-.26-3.29c-1.57.13-2.61,1.55-3.09,4.27l-.39,17.11c.07.43.23.73.48.89l7.36,2.78c.29-.08.44-.4.44-.96l-.12-15.65-.26-2.07c-.88-3.98-2.35-6.11-4.41-6.37h0Zm0,0"/>
  <path class="cls-6" d="m370.2,305.72c1.29.15,2.2,1.51,2.75,4.06.13,1.23.17,1.51.12.83l.05,3.4-.06,9.01-5.01-1.94.2-12.52c.29-1.8.93-2.74,1.92-2.84m-.32-3.28c-1.58.13-2.61,1.55-3.1,4.27l-.38,17.16,8.2,2.63-.05-15.65c-.1-1.02-.2-1.75-.28-2.16-.9-3.89-2.35-5.97-4.33-6.24h-.06Zm0,0"/>
  <path class="cls-6" d="m383.98,309.96c-.18,0-.36.02-.54.07h-.01c-.99.33-1.74,1.3-2.25,2.91-.1.35-.19.7-.25,1.07h0,0c-.06.3-.1.61-.13.93h0s0,0,0,0h0,0c-.07.68-.09,1.39-.05,2.14h0l-.16,7.75-.07,3.54,5.52,1.74-3.84-1.44h-.01s.04-3.32.04-3.32l.05-3.74h0s.03.06.04.09l.04-3.75c-.01-.14-.02-.29-.02-.43h0v-.89c.02-.12.03-.24.04-.36h0c.04-.4.12-.78.22-1.14.32-1.03.78-1.64,1.39-1.84h0c.12-.03.24-.05.35-.05.15,0,.3.03.45.08.35.13.7.4,1.04.82.6.79,1.02,1.81,1.25,3.08.07.43.12.84.14,1.25v-.35s0,.35,0,.35c.01.23.02.46,0,.69h0l.03,2.36v5.42s0,3.55,0,3.55l1.5.47-.03-3.56-.07-9.06c0-.15-.02-.3-.06-.43,0-.04,0-.09-.01-.13h0s0,0,0,0c-.04-.5-.11-1-.2-1.52-.39-2.03-1.07-3.66-2.03-4.9-.54-.66-1.09-1.09-1.65-1.28-.24-.08-.48-.13-.72-.13h0Zm0,0"/>
  <path class="cls-8" d="m223.99,336.26l-2.54.03,2.52,2.16.02-2.17v-.02Zm0,0"/>
  <path class="cls-6" d="m218.63,315.28c-.73.06-1.17.45-1.3,1.15l-.02,6.39c.01.3.12.56.32.8.25.28.56.43.91.45h2.56s-.04,9.69-.04,9.69l2.95-.03.04-9.64h2.21c.73-.04,1.17-.43,1.32-1.15l.02-6.39c-.01-.3-.12-.56-.32-.8-.25-.28-.56-.43-.91-.45l-7.72-.02h0Zm1.31,2.63l5.03.02-.02,3.54h-5.01s-.02-.01-.02-.01v-3.55s0,0,0,0Zm0,0"/>
  <path class="cls-6" d="m239.75,317.47l5.03.11v3.41s-5,.03-5,.03l-.03-3.48m-1.31-2.7c-.73.06-1.17.45-1.3,1.16l.02,6.64c.03.93,1.28,1.28,3.76,1.05l-.13,29.12,2.94,2.48.14-31.58c2.21.16,3.35-.12,3.42-.84l.11-6.92c-.15-.63-.54-.99-1.17-1.09l-7.78-.02h0Zm0,0"/>
  <path class="cls-8" d="m198.41,315.1c-1.05.1-1.48.84-1.31,2.21l2.6,2.06.06-1.64,4.99.06-.02,3.51-2.47.03,3.49,2.6c.92.03,1.45-.35,1.6-1.15l.02-6.45c0-.23-.11-.49-.34-.77-.31-.29-.62-.44-.93-.43l-7.68-.02h-.02Zm0,0"/>
  <path class="cls-6" d="m332.73,335.74l-2.95.05-.04,8.09,2.95.04.04-8.18Zm0,0"/>
  <path class="cls-6" d="m329.73,346.4l-.03,6.46v3.2c1,0,1.98,0,2.93,0v-3.2s.04-6.43.04-6.43l-2.95-.04Zm0,0"/>
  <path class="cls-6" d="m312.91,336.05l-2.95.05v2.27s2.94,0,2.94,0v-2.31Zm0,0"/>
  <path class="cls-6" d="m312.89,340.88h-2.95l-.06,12.42v3.2c1,0,1.98,0,2.93,0v-3.2s.07-12.42.07-12.42Zm0,0"/>
  <path class="cls-6" d="m327.36,314.32c-.73.06-1.17.45-1.3,1.15l-.02,6.39c.01.3.12.56.32.8.25.28.56.43.91.45h2.56s-.05,10.15-.05,10.15l2.95-.05.05-10.09h2.21c.73-.04,1.17-.43,1.32-1.15l.02-6.39c-.01-.3-.12-.56-.32-.8-.25-.28-.56-.43-.92-.45l-7.72-.02h0Zm1.31,2.63l5.03.02v3.54s-5.02-.01-5.02-.01h-.02s0-3.55,0-3.55h0Zm0,0"/>
  <path class="cls-6" d="m307.55,314.76c-.73.06-1.17.45-1.3,1.15l-.02,6.39c.01.3.12.56.32.8.25.28.56.43.91.45h2.56s-.05,10.02-.05,10.02l2.95-.05.05-9.96h2.21c.73-.04,1.17-.43,1.32-1.15l.02-6.39c-.01-.3-.12-.56-.32-.8-.25-.28-.56-.43-.92-.45l-7.72-.02h0Zm1.31,2.63l5.03.02v3.54s-5.02-.01-5.02-.01h-.02s0-3.55,0-3.55h0Zm0,0"/>
  <path class="cls-6" d="m287.33,314.58c-.73.06-1.17.45-1.3,1.15l-.02,6.39c.01.3.12.56.32.8.25.28.56.43.91.45h2.56s-.14,29.74-.14,29.74v3.2c1,0,1.98,0,2.94,0v-3.2s.15-29.73.15-29.73h2.21c.73-.04,1.17-.43,1.32-1.15l.02-6.39c-.01-.3-.12-.56-.32-.8-.25-.28-.56-.43-.92-.45l-7.72-.02h0Zm1.31,2.63l5.03.02v3.54s-5.02-.01-5.02-.01h-.02s0-3.55,0-3.55h0Zm0,0"/>
  <path class="cls-6" d="m355.65,338.17l-.04,2.29,2.56.23.04-2.34-2.56-.17Zm0,0"/>
  <path class="cls-6" d="m353.54,317.77c-.19,0-.35.05-.51.16-.2.16-.31.38-.33.67v.69s-.13,5.62-.13,5.62c.12.76.54,1.25,1.24,1.5l2.03.56-.15,8.68,2.56.17.14-8.16,2.07.57c.06.01.11.02.17.02,0,0,.01,0,.02,0,.2,0,.38-.07.53-.22.16-.17.24-.38.26-.63l.09-5.19v-.38c-.07-.58-.34-1.01-.79-1.3h0,0c-.06-.04-.12-.07-.18-.1h0s-1.58-.62-1.58-.62l-5.04-1.97c-.12-.04-.24-.06-.35-.07,0,0-.01,0-.02,0h0Zm1.61,3.08l4.31,1.53h0s-.06,3.19-.06,3.19h-.01s-4.3-1.33-4.3-1.33l.06-3.38Zm0,0"/>
  <path class="cls-6" d="m368.66,324.41l4.31,1.6-.07,3.12-4.26-1.32v-3.38m-1.59-3.1c-.44,0-.71.25-.83.76l-.1,6.55c-.03.88,1.05,1.51,3.23,1.88l-.27,18.03,2.55-1.65.27-15.64c2.03.7,3.01.73,2.94.11l.2-5.96c-.07-.62-.37-1.08-.9-1.38l-7.08-2.7h0Zm0,0"/>
  <path class="cls-6" d="m383.13,329.16l4.31,1.6-.07,3.12-4.26-1.32v-3.38m-1.59-3.1c-.44,0-.72.25-.83.76l-.12,6.46c0,.98,1.08,1.64,3.25,1.98l-.05,3.32,2.58-1.91.06-.7.64.17,2.38-1.86.05-2.84-.5-.16c.5.57.67.17.51-1.21-.09-.61-.41-1.05-.97-1.34l-7-2.66h-.01Zm0,0"/>
  <path class="cls-10" d="m267.08,174.7c.79,0,1.47.29,2.05.84.56.56.85,1.25.87,2.06-.01.81-.29,1.5-.85,2.06-.57.56-1.25.84-2.06.86-.79,0-1.47-.29-2.05-.84-.56-.56-.85-1.25-.87-2.06.01-.81.29-1.5.84-2.06.57-.56,1.25-.85,2.06-.86m0-2.52c-1.49.02-2.78.55-3.85,1.6-1.03,1.06-1.56,2.34-1.58,3.83.02,1.49.55,2.77,1.59,3.83,1.05,1.03,2.33,1.56,3.83,1.59,1.49-.02,2.78-.55,3.85-1.6,1.03-1.06,1.56-2.34,1.58-3.83-.02-1.49-.55-2.77-1.59-3.83-1.05-1.03-2.33-1.56-3.83-1.59"/>
  <path class="cls-10" d="m268.59,169.64c-.09.22-.24.42-.45.6-.38.29-.82.44-1.33.44-.51,0-.95-.15-1.33-.43-.02-.02-.05-.04-.07-.06h0l.05,1.95h0,0v.38s.02.36.02.36h0,0l.05,1.79c.71-.03,1.42-.04,2.14-.05h.25c.27,0,.54,0,.81.01l-.05-1.76h0,0v-.52s-.02-.27-.02-.27h0,0l-.06-2.3v-.15h0Zm0,0"/>
  <path class="cls-8" d="m268.5,164.77c-.24.17-.5.29-.78.38h0c.13.08.26.17.37.29.2.2.35.43.44.68l-.03-1.35h0Zm0,0"/>
  <path class="cls-8" d="m265.3,164.82l.02.74s.07-.08.11-.12c.14-.14.29-.25.46-.34h0c-.2-.07-.39-.17-.58-.29h0Zm0,0"/>
  <path class="cls-10" d="m267.09,166.2c.46,0,.85.17,1.19.49.32.32.48.72.49,1.19,0,.47-.17.86-.49,1.19-.34.33-.73.49-1.19.5-.45,0-.85-.16-1.19-.49-.32-.32-.49-.72-.5-1.19,0-.47.17-.86.48-1.19.34-.33.73-.5,1.19-.5m.01-2.25c-1.09.02-2.02.4-2.79,1.16-.74.76-1.12,1.69-1.15,2.77.01,1.08.4,2.01,1.15,2.79.76.75,1.68,1.13,2.77,1.16,1.09-.01,2.02-.39,2.8-1.15.75-.77,1.14-1.7,1.16-2.78-.01-1.08-.4-2.01-1.15-2.79-.76-.75-1.68-1.13-2.77-1.16"/>
  <path class="cls-10" d="m268.56,161.79c-.49.2-1.02.29-1.61.29-.05,0-.11,0-.16,0-.51,0-.99-.09-1.43-.26h0l.02,1.17h0,0v.48s.01.08.01.08v.38s.02.4.02.4h0,0l.04,1.86c.71-.03,1.42-.06,2.14-.07h.25c.27,0,.54,0,.81.02l-.04-1.87h0s0,0,0,0v-.33s0,0,0,0h0v-.4s-.01-.26-.01-.26v-.34s0,0,0,0h0l-.02-1.13h0Zm0,0"/>
  <path class="cls-10" d="m267.51,153.5c-.32,0-.55.03-.7.1,2.11.38,3.45,1.49,4.03,3.34.37,1.67-.07,3.06-1.31,4.15-.95.79-2.19,1.04-3.74.75-1.27-.36-2.16-1.17-2.66-2.4-.44-1.26-.32-2.46.35-3.61.31-.52.72-.96,1.22-1.32.62-.44,1.27-.71,1.96-.82.05-.03.05-.09.02-.17-1.33-.03-2.49.41-3.46,1.31-.97.95-1.49,2.11-1.57,3.47-.04,1.51.46,2.83,1.5,3.94,1.06,1.07,2.35,1.64,3.9,1.69,1.39-.08,2.59-.61,3.61-1.59.98-1,1.52-2.19,1.6-3.58.04-1.42-.39-2.64-1.3-3.68-.96-1.03-2.11-1.56-3.42-1.59"/>
  <path class="cls-6" d="m293.83,280.84l-49.6.25c-.94.14-1.43.69-1.48,1.64.13.95.67,1.45,1.62,1.5l49.59-.25c.92-.16,1.4-.7,1.44-1.62-.12-.93-.64-1.43-1.56-1.51"/>
  <path class="cls-6" d="m294.07,274.91l-49.6.25c-.94.14-1.43.69-1.48,1.64.13.94.67,1.44,1.62,1.49l49.59-.25c.92-.15,1.4-.7,1.44-1.63-.12-.92-.64-1.42-1.56-1.5"/>
  <path class="cls-6" d="m295.04,261.87l-49.6.25c-.94.14-1.43.69-1.48,1.64.12.93.66,1.43,1.62,1.49l49.59-.25c.92-.15,1.4-.7,1.44-1.63-.12-.92-.64-1.42-1.56-1.5"/>
  <path class="cls-8" d="m187.71,93.87c-23.84,21.48-46.78,58.73-48.03,122.75-.78,40.28,12.85,75.89,39.43,102.98,29.12,29.69,71.57,46.72,116.48,46.72,28.52,0,55.13-6.93,77.84-19.56-5.85,7.93-12.39,15.29-19.57,22.01-16.68,15.64-36.97,27.97-60.28,36.64-16.57,6.16-33.38,9.28-49.97,9.28-42.03,0-75.7-19.73-96.55-36.28-.25-.2-.5-.4-.75-.6-30.01-24.07-50.37-57.98-58.5-95.58-2.13-9.86-3.54-20.34-3.73-31.65-.27-15.58,1.93-31.28,6.52-46.67,5.42-18.16,14.36-36.59,26.6-54.79,20.36-30.27,46.57-46.56,70.52-55.24m54.46-25.38c-40.42,0-99.71,14.68-138.11,71.79-56.14,83.49-33.11,148.98-18.71,187.13,11.77,30.1,73.65,103.12,158.27,103.12,17.58,0,36.17-3.09,55.49-10.28,112.28-41.74,120.91-146.82,120.91-146.82-22.91,52.45-73.53,77.06-124.42,77.06-70.62,0-141.75-47.39-140.08-133.56,2.65-136.35,107.56-141.83,124.4-141.83,1.47,0,2.27.04,2.27.04-6.71-3.52-21.35-6.65-40.02-6.65h0Z"/>
  <path class="cls-11" d="m260.12,188.5s-44.49,12.68-44.74,60.34"/>
  <path class="cls-11" d="m262.62,188s-39.74,11.34-40,59"/>
  <path class="cls-11" d="m278.87,188.5s44.49,14.84,44.74,62.5"/>
  <path class="cls-11" d="m274.62,188s40.74,12.34,41,60"/>
  <path class="cls-11" d="m265.03,187.95s-34.8,26.56-35.11,56.81"/>
  <line class="cls-11" x1="266.62" y1="188" x2="266.62" y2="239.49"/>
  <path class="cls-11" d="m270.65,187.82s35.97,26.18,30.97,56.18"/>
  <path class="cls-11" d="m268.89,187.85s24.72,25.15,16.72,53.15"/>
  <path class="cls-11" d="m265.69,187.9s-21.07,30.1-16.07,52.1"/>
  <path class="cls-11" d="m228.62,201s30.04,9.21,77.52.61"/>
  <path class="cls-11" d="m219.62,212s46.87,12.81,94.44-2.1"/>
  <path class="cls-11" d="m213.62,224s59.44,10.9,107-4"/>
  <path class="cls-11" d="m209.12,234s63.88,10.9,115-4"/>
  <path class="cls-6" d="m267.91,239.43c-1.02.01-2.03.03-3.03.06l-.1,3.37c2.4-.07,3.67-.09,3.79-.05v-3.3s-.59-.09-.59-.09h-.06Zm0,0"/>
  <path class="cls-6" d="m261.63,239.62c-21.43,1.02-41,5.88-58.73,14.59h0c-.33.16-.66.33-.99.49-.22.23-.36.51-.41.83-.02.09-.02.18-.02.27l.02,2.93c1.06-.55,2.12-1.09,3.19-1.61,17.18-8.39,36.14-13.1,56.89-14.13l.06-3.37Zm0,0"/>
  <path class="cls-6" d="m271.76,239.54l.03,3.37h0c21.13.88,40.63,5.78,58.48,14.69v-1.81s0,1.81,0,1.81h0c1.07.53,2.13,1.08,3.19,1.64l.02-3.45c0-.08,0-.17-.02-.27,0-.03-.01-.05-.02-.08h0c-.73-.38-1.47-.75-2.21-1.12-18.15-8.96-37.98-13.9-59.48-14.8h0Zm0,0"/>
</svg>